<?xml version="1.0" encoding="UTF-8" standalone="no"?><svg xmlns="http://www.w3.org/2000/svg" xmlns:xlink="http://www.w3.org/1999/xlink" contentScriptType="application/ecmascript" contentStyleType="text/css" height="570px" preserveAspectRatio="none" style="width:1029px;height:570px;" version="1.1" viewBox="0 0 1029 570" width="1029px" zoomAndPan="magnify"><defs><filter height="300%" id="f15z1kbgphvq62" width="300%" x="-1" y="-1"><feGaussianBlur result="blurOut" stdDeviation="2.0"/><feColorMatrix in="blurOut" result="blurOut2" type="matrix" values="0 0 0 0 0 0 0 0 0 0 0 0 0 0 0 0 0 0 .4 0"/><feOffset dx="4.0" dy="4.0" in="blurOut2" result="blurOut3"/><feBlend in="SourceGraphic" in2="blurOut3" mode="normal"/></filter></defs><g><text fill="#000000" font-family="sans-serif" font-size="18" lengthAdjust="spacingAndGlyphs" textLength="35" x="488.25" y="17.4023">SDK</text><!--MD5=[60dd2ef8dfaef32444a961647ab9be0c]
cluster Authorized--><rect fill="#FEFECE" filter="url(#f15z1kbgphvq62)" height="102" rx="12.5" ry="12.5" style="stroke: #A80036; stroke-width: 1.5;" width="178" x="825.5" y="183.1992"/><rect fill="#FFFFFF" height="69.5117" rx="12.5" ry="12.5" style="stroke: #FFFFFF; stroke-width: 1.0;" width="172" x="828.5" y="212.6875"/><line style="stroke: #A80036; stroke-width: 1.5;" x1="825.5" x2="1003.5" y1="209.6875" y2="209.6875"/><text fill="#000000" font-family="sans-serif" font-size="14" lengthAdjust="spacingAndGlyphs" textLength="77" x="876" y="200.7344">Authorized</text><g id="Authorized.administrator"><rect fill="#FEFECE" filter="url(#f15z1kbgphvq62)" height="50.6211" rx="12.5" ry="12.5" style="stroke: #A80036; stroke-width: 1.5;" width="145" x="842" y="218.1992"/><line style="stroke: #A80036; stroke-width: 1.5;" x1="842" x2="987" y1="244.6875" y2="244.6875"/><text fill="#000000" font-family="sans-serif" font-size="14" lengthAdjust="spacingAndGlyphs" textLength="93" x="868" y="236.7344">administrator</text><text fill="#000000" font-family="sans-serif" font-size="12" lengthAdjust="spacingAndGlyphs" textLength="125" x="847" y="261.2891">yiguana.administrator</text></g><g id="yiguana"><rect fill="#FEFECE" filter="url(#f15z1kbgphvq62)" height="50.6211" rx="12.5" ry="12.5" style="stroke: #A80036; stroke-width: 1.5;" width="109" x="422" y="107.1992"/><line style="stroke: #A80036; stroke-width: 1.5;" x1="422" x2="531" y1="133.6875" y2="133.6875"/><text fill="#000000" font-family="sans-serif" font-size="14" lengthAdjust="spacingAndGlyphs" textLength="54" x="449.5" y="125.7344">yiguana</text><text fill="#000000" font-family="sans-serif" font-size="12" lengthAdjust="spacingAndGlyphs" textLength="89" x="427" y="150.2891">createYiguana()</text></g><g id="common"><rect fill="#FEFECE" filter="url(#f15z1kbgphvq62)" height="50.6211" rx="12.5" ry="12.5" style="stroke: #A80036; stroke-width: 1.5;" width="117" x="488" y="218.1992"/><line style="stroke: #A80036; stroke-width: 1.5;" x1="488" x2="605" y1="244.6875" y2="244.6875"/><text fill="#000000" font-family="sans-serif" font-size="14" lengthAdjust="spacingAndGlyphs" textLength="60" x="516.5" y="236.7344">common</text><text fill="#000000" font-family="sans-serif" font-size="12" lengthAdjust="spacingAndGlyphs" textLength="97" x="493" y="261.2891">yiguana.common</text></g><g id="post"><rect fill="#FEFECE" filter="url(#f15z1kbgphvq62)" height="50.6211" rx="12.5" ry="12.5" style="stroke: #A80036; stroke-width: 1.5;" width="93" x="669" y="218.1992"/><line style="stroke: #A80036; stroke-width: 1.5;" x1="669" x2="762" y1="244.6875" y2="244.6875"/><text fill="#000000" font-family="sans-serif" font-size="14" lengthAdjust="spacingAndGlyphs" textLength="30" x="700.5" y="236.7344">post</text><text fill="#000000" font-family="sans-serif" font-size="12" lengthAdjust="spacingAndGlyphs" textLength="73" x="674" y="261.2891">yiguana.post</text></g><g id="comment"><rect fill="#FEFECE" filter="url(#f15z1kbgphvq62)" height="50.6211" rx="12.5" ry="12.5" style="stroke: #A80036; stroke-width: 1.5;" width="121" x="72" y="218.1992"/><line style="stroke: #A80036; stroke-width: 1.5;" x1="72" x2="193" y1="244.6875" y2="244.6875"/><text fill="#000000" font-family="sans-serif" font-size="14" lengthAdjust="spacingAndGlyphs" textLength="64" x="100.5" y="236.7344">comment</text><text fill="#000000" font-family="sans-serif" font-size="12" lengthAdjust="spacingAndGlyphs" textLength="101" x="77" y="261.2891">yiguana.comment</text></g><g id="reply"><rect fill="#FEFECE" filter="url(#f15z1kbgphvq62)" height="50.6211" rx="12.5" ry="12.5" style="stroke: #A80036; stroke-width: 1.5;" width="97" x="228" y="218.1992"/><line style="stroke: #A80036; stroke-width: 1.5;" x1="228" x2="325" y1="244.6875" y2="244.6875"/><text fill="#000000" font-family="sans-serif" font-size="14" lengthAdjust="spacingAndGlyphs" textLength="34" x="259.5" y="236.7344">reply</text><text fill="#000000" font-family="sans-serif" font-size="12" lengthAdjust="spacingAndGlyphs" textLength="77" x="233" y="261.2891">yiguana.reply</text></g><g id="user"><rect fill="#FEFECE" filter="url(#f15z1kbgphvq62)" height="50.6211" rx="12.5" ry="12.5" style="stroke: #A80036; stroke-width: 1.5;" width="93" x="360" y="218.1992"/><line style="stroke: #A80036; stroke-width: 1.5;" x1="360" x2="453" y1="244.6875" y2="244.6875"/><text fill="#000000" font-family="sans-serif" font-size="14" lengthAdjust="spacingAndGlyphs" textLength="30" x="391.5" y="236.7344">user</text><text fill="#000000" font-family="sans-serif" font-size="12" lengthAdjust="spacingAndGlyphs" textLength="73" x="365" y="261.2891">yiguana.user</text></g><g id="createUploadUrl"><rect fill="#FEFECE" filter="url(#f15z1kbgphvq62)" height="50.6211" rx="12.5" ry="12.5" style="stroke: #A80036; stroke-width: 1.5;" width="208" x="383.5" y="329.1992"/><line style="stroke: #A80036; stroke-width: 1.5;" x1="383.5" x2="591.5" y1="355.6875" y2="355.6875"/><text fill="#000000" font-family="sans-serif" font-size="14" lengthAdjust="spacingAndGlyphs" textLength="111" x="432" y="347.7344">createUploadUrl</text><text fill="#000000" font-family="sans-serif" font-size="12" lengthAdjust="spacingAndGlyphs" textLength="188" x="388.5" y="372.2891">(input: CreateUploadUrlApiInput)</text></g><g id="list"><rect fill="#FEFECE" filter="url(#f15z1kbgphvq62)" height="50" rx="12.5" ry="12.5" style="stroke: #A80036; stroke-width: 1.5;" width="50" x="419.5" y="501.1992"/><line style="stroke: #A80036; stroke-width: 1.5;" x1="419.5" x2="469.5" y1="527.6875" y2="527.6875"/><text fill="#000000" font-family="sans-serif" font-size="14" lengthAdjust="spacingAndGlyphs" textLength="20" x="434.5" y="519.7344">list</text></g><g id="create"><rect fill="#FEFECE" filter="url(#f15z1kbgphvq62)" height="50" rx="12.5" ry="12.5" style="stroke: #A80036; stroke-width: 1.5;" width="62" x="509.5" y="501.1992"/><line style="stroke: #A80036; stroke-width: 1.5;" x1="509.5" x2="571.5" y1="527.6875" y2="527.6875"/><text fill="#000000" font-family="sans-serif" font-size="14" lengthAdjust="spacingAndGlyphs" textLength="42" x="519.5" y="519.7344">create</text></g><g id="read"><rect fill="#FEFECE" filter="url(#f15z1kbgphvq62)" height="50" rx="12.5" ry="12.5" style="stroke: #A80036; stroke-width: 1.5;" width="51" x="7" y="501.1992"/><line style="stroke: #A80036; stroke-width: 1.5;" x1="7" x2="58" y1="527.6875" y2="527.6875"/><text fill="#000000" font-family="sans-serif" font-size="14" lengthAdjust="spacingAndGlyphs" textLength="31" x="17" y="519.7344">read</text></g><g id="del"><rect fill="#FEFECE" filter="url(#f15z1kbgphvq62)" height="50" rx="12.5" ry="12.5" style="stroke: #A80036; stroke-width: 1.5;" width="50" x="323.5" y="501.1992"/><line style="stroke: #A80036; stroke-width: 1.5;" x1="323.5" x2="373.5" y1="527.6875" y2="527.6875"/><text fill="#000000" font-family="sans-serif" font-size="14" lengthAdjust="spacingAndGlyphs" textLength="21" x="338" y="519.7344">del</text></g><g id="view"><rect fill="#FEFECE" filter="url(#f15z1kbgphvq62)" height="50" rx="12.5" ry="12.5" style="stroke: #A80036; stroke-width: 1.5;" width="50" x="832.5" y="501.1992"/><line style="stroke: #A80036; stroke-width: 1.5;" x1="832.5" x2="882.5" y1="527.6875" y2="527.6875"/><text fill="#000000" font-family="sans-serif" font-size="14" lengthAdjust="spacingAndGlyphs" textLength="30" x="842.5" y="519.7344">view</text></g><g id="get"><rect fill="#FEFECE" filter="url(#f15z1kbgphvq62)" height="50" rx="12.5" ry="12.5" style="stroke: #A80036; stroke-width: 1.5;" width="50" x="298.5" y="329.6992"/><line style="stroke: #A80036; stroke-width: 1.5;" x1="298.5" x2="348.5" y1="356.1875" y2="356.1875"/><text fill="#000000" font-family="sans-serif" font-size="14" lengthAdjust="spacingAndGlyphs" textLength="22" x="312.5" y="348.2344">get</text></g><ellipse cx="476.5" cy="37.1992" fill="#000000" filter="url(#f15z1kbgphvq62)" rx="10" ry="10" style="stroke: none; stroke-width: 1.0;"/><g id="replyReport"><rect fill="#FEFECE" filter="url(#f15z1kbgphvq62)" height="50" rx="12.5" ry="12.5" style="stroke: #A80036; stroke-width: 1.5;" width="100" x="910.5" y="329.6992"/><line style="stroke: #A80036; stroke-width: 1.5;" x1="910.5" x2="1010.5" y1="356.1875" y2="356.1875"/><text fill="#000000" font-family="sans-serif" font-size="14" lengthAdjust="spacingAndGlyphs" textLength="80" x="920.5" y="348.2344">replyReport</text></g><!--MD5=[656df4787dedd69a1b23368a78431672]
link *start to yiguana--><path d="M476.5,47.5092 C476.5,60.0892 476.5,83.1092 476.5,101.9092 " fill="none" id="*start-&gt;yiguana" style="stroke: #A80036; stroke-width: 1.0;"/><polygon fill="#A80036" points="476.5,107.0792,480.5,98.0792,476.5,102.0792,472.5,98.0792,476.5,107.0792" style="stroke: #A80036; stroke-width: 1.0;"/><!--MD5=[e4cdf41d05eaee34c94043c15d2884e6]
link yiguana to common--><path d="M492.38,158.4292 C502.95,174.8792 516.86,196.5392 527.93,213.7792 " fill="none" id="yiguana-&gt;common" style="stroke: #A80036; stroke-width: 1.0;"/><polygon fill="#A80036" points="530.68,218.0592,529.1929,208.3233,527.9827,213.8492,522.4568,212.6389,530.68,218.0592" style="stroke: #A80036; stroke-width: 1.0;"/><!--MD5=[3e07eedba33976a2dfae5188cd1a3c18]
link yiguana to post--><path d="M531.21,144.4392 C559.35,151.1492 593.7,161.1992 622.5,175.1992 C644,185.6492 665.76,201.1092 682.81,214.5992 " fill="none" id="yiguana-&gt;post" style="stroke: #A80036; stroke-width: 1.0;"/><polygon fill="#A80036" points="687.04,217.9792,682.5071,209.2355,683.1343,214.8575,677.5123,215.4847,687.04,217.9792" style="stroke: #A80036; stroke-width: 1.0;"/><!--MD5=[fc8f5a36f3bd3d7a4e06e515d980175e]
link yiguana to comment--><path d="M422,133.5292 C366.38,135.2992 278.77,143.5492 210.5,175.1992 C190.6,184.4192 171.89,200.2692 157.78,214.2992 " fill="none" id="yiguana-&gt;comment" style="stroke: #A80036; stroke-width: 1.0;"/><polygon fill="#A80036" points="153.93,218.1992,163.1008,214.608,157.444,214.6423,157.4098,208.9856,153.93,218.1992" style="stroke: #A80036; stroke-width: 1.0;"/><!--MD5=[ef7cd522d7e449d906e67819c3b05d86]
link yiguana to reply--><path d="M421.73,144.1392 C396.38,150.5692 366.61,160.4692 342.5,175.1992 C325.9,185.3492 310.5,200.5992 298.76,214.0392 " fill="none" id="yiguana-&gt;reply" style="stroke: #A80036; stroke-width: 1.0;"/><polygon fill="#A80036" points="295.24,218.1392,304.1341,213.9091,298.494,214.3429,298.0601,208.7027,295.24,218.1392" style="stroke: #A80036; stroke-width: 1.0;"/><!--MD5=[1b372dfe786bb013bda26cc06f3bd8d3]
link yiguana to user--><path d="M460.62,158.4292 C450.05,174.8792 436.14,196.5392 425.07,213.7792 " fill="none" id="yiguana-&gt;user" style="stroke: #A80036; stroke-width: 1.0;"/><polygon fill="#A80036" points="422.32,218.0592,430.5432,212.6389,425.0173,213.8492,423.8071,208.3233,422.32,218.0592" style="stroke: #A80036; stroke-width: 1.0;"/><!--MD5=[013cad4372b990f2aeee95d614549c46]
link yiguana to administrator--><path d="M531.02,135.8092 C592.58,139.4092 695.17,149.1192 779.5,175.1992 C810.84,184.8892 843.82,201.2492 869.34,215.4392 " fill="none" id="yiguana-&gt;administrator" style="stroke: #A80036; stroke-width: 1.0;"/><polygon fill="#A80036" points="874.01,218.0592,868.1244,210.1624,869.6514,215.6093,864.2045,217.1362,874.01,218.0592" style="stroke: #A80036; stroke-width: 1.0;"/><!--MD5=[3d397ba097e6e544f1001a4c0e87f621]
link common to createUploadUrl--><path d="M533.11,269.4292 C524.29,285.7392 512.68,307.1692 503.39,324.3392 " fill="none" id="common-&gt;createUploadUrl" style="stroke: #A80036; stroke-width: 1.0;"/><polygon fill="#A80036" points="500.84,329.0592,508.6544,323.0646,503.2292,324.667,501.6269,319.2418,500.84,329.0592" style="stroke: #A80036; stroke-width: 1.0;"/><!--MD5=[2b9a981aa259f5f28acbcf29105938f7]
link post to list--><path d="M712.39,269.2892 C707.65,298.3792 696.28,347.0192 670.5,380.1992 C642.96,415.6492 528.95,479.8192 474.16,509.4392 " fill="none" id="post-&gt;list" style="stroke: #A80036; stroke-width: 1.0;"/><polygon fill="#A80036" points="469.69,511.8592,479.5104,511.1104,474.0914,509.487,475.7148,504.0681,469.69,511.8592" style="stroke: #A80036; stroke-width: 1.0;"/><!--MD5=[79c4b524607c58bc91f4bbc6492d7ddb]
link post to create--><path d="M728.53,269.4292 C747.49,309.1892 776.79,388.2092 741.5,441.1992 C704.69,496.4792 623.8,515.4392 576.63,521.9092 " fill="none" id="post-&gt;create" style="stroke: #A80036; stroke-width: 1.0;"/><polygon fill="#A80036" points="571.61,522.5592,581.0576,525.3418,576.5666,521.9021,580.0063,517.4112,571.61,522.5592" style="stroke: #A80036; stroke-width: 1.0;"/><!--MD5=[adbad715128e8a0a5cb8287d00d0084c]
link post to del--><path d="M700.35,269.3692 C681.54,298.5292 647.18,347.2492 608.5,380.1992 C569.96,413.0292 438.16,480.5192 378.39,510.3992 " fill="none" id="post-&gt;del" style="stroke: #A80036; stroke-width: 1.0;"/><polygon fill="#A80036" points="373.87,512.6592,383.7081,512.1994,378.3393,510.4174,380.1213,505.0486,373.87,512.6592" style="stroke: #A80036; stroke-width: 1.0;"/><!--MD5=[d93ebe0da4f899e6613b9b97cc82ca54]
link post to view--><path d="M753.95,269.2692 C774.31,284.2192 798.03,305.0592 812.5,329.1992 C844.28,382.2192 853.62,455.6492 856.37,495.8992 " fill="none" id="post-&gt;view" style="stroke: #A80036; stroke-width: 1.0;"/><polygon fill="#A80036" points="856.7,501.1192,860.1275,491.886,856.3863,496.1291,852.1433,492.3879,856.7,501.1192" style="stroke: #A80036; stroke-width: 1.0;"/><!--MD5=[77a56133c26edf4b88a1bf9b5c3a0266]
link comment to list--><path d="M144.25,269.4292 C158.9,298.4192 186.12,346.7592 219.5,380.1992 C279.65,440.4492 368.94,488.7292 414.86,511.3092 " fill="none" id="comment-&gt;list" style="stroke: #A80036; stroke-width: 1.0;"/><polygon fill="#A80036" points="419.44,513.5492,413.1209,505.9948,414.9508,511.3475,409.5982,513.1775,419.44,513.5492" style="stroke: #A80036; stroke-width: 1.0;"/><!--MD5=[8f75d0154d12a66e57a0e5623e3aec4d]
link comment to create--><path d="M159.16,269.4092 C199.99,307.1892 273.98,375.4992 280.5,380.1992 C355.77,434.5092 453.38,483.9792 504.95,508.6692 " fill="none" id="comment-&gt;create" style="stroke: #A80036; stroke-width: 1.0;"/><polygon fill="#A80036" points="509.49,510.8392,503.0941,503.3497,504.9786,508.6835,499.6449,510.568,509.49,510.8392" style="stroke: #A80036; stroke-width: 1.0;"/><!--MD5=[7ae63d3911bed20b8aa01a6f0a6e8d78]
link comment to read--><path d="M113.18,269.2692 C101.3,285.4692 86.66,307.6092 77.5,329.1992 C53.55,385.6392 41.28,456.8792 35.94,496.0592 " fill="none" id="comment-&gt;read" style="stroke: #A80036; stroke-width: 1.0;"/><polygon fill="#A80036" points="35.26,501.1292,40.408,492.7329,35.9171,496.1726,32.4774,491.6816,35.26,501.1292" style="stroke: #A80036; stroke-width: 1.0;"/><!--MD5=[266027693d031a0bc6b2119320c38764]
link comment to del--><path d="M126.99,269.4992 C119.58,309.7092 111.24,389.7892 148.5,441.1992 C188.72,496.6892 272.83,515.7392 318.1,522.1092 " fill="none" id="comment-&gt;del" style="stroke: #A80036; stroke-width: 1.0;"/><polygon fill="#A80036" points="323.16,522.7892,314.7783,517.6174,318.2052,522.1181,313.7046,525.545,323.16,522.7892" style="stroke: #A80036; stroke-width: 1.0;"/><!--MD5=[61fee248f8f79c93a7a56ed2d7e7e1e8]
link user to get--><path d="M387.67,269.4292 C375.06,285.9892 358.42,307.8392 345.24,325.1492 " fill="none" id="user-&gt;get" style="stroke: #A80036; stroke-width: 1.0;"/><polygon fill="#A80036" points="341.97,329.4392,350.6082,324.7082,345.0019,325.4634,344.2468,319.8571,341.97,329.4392" style="stroke: #A80036; stroke-width: 1.0;"/><!--MD5=[6456245570d3d26685b35921083ea12a]
link administrator to replyReport--><path d="M924.94,269.4292 C931.87,285.8492 940.99,307.4692 948.26,324.6992 " fill="none" id="administrator-&gt;replyReport" style="stroke: #A80036; stroke-width: 1.0;"/><polygon fill="#A80036" points="950.26,329.4392,950.4431,319.5921,948.3146,324.8332,943.0735,322.7047,950.26,329.4392" style="stroke: #A80036; stroke-width: 1.0;"/><!--MD5=[cc6035fcefa5b4a2dc6e70a795057810]
@startuml class-diagram
title SDK

top to bottom direction

yiguana: createYiguana()
common: yiguana.common
post: yiguana.post
comment: yiguana.comment
reply: yiguana.reply
user: yiguana.user
state Authorized {
    administrator: yiguana.administrator
}

createUploadUrl: (input: CreateUploadUrlApiInput)

list:
create:
read:
del:
view:
get:

[*] - -> yiguana
yiguana - -> common
yiguana - -> post
yiguana - -> comment
yiguana - -> reply
yiguana - -> user
yiguana - -> administrator

common - -> createUploadUrl

post - - - -> list
post - - - -> create
post - - - -> del
post - - - -> view
comment - - - -> list
comment - - - -> create
comment - - - -> read
comment - - - -> del

user - -> get
administrator - -> replyReport






@enduml

PlantUML version 1.2020.15(Sun Jun 28 20:39:45 KST 2020)
(GPL source distribution)
Java Runtime: OpenJDK Runtime Environment
JVM: OpenJDK 64-Bit Server VM
Default Encoding: UTF-8
Language: ko
Country: KR
--></g></svg>