<?xml version="1.0" encoding="UTF-8" standalone="no"?><svg xmlns="http://www.w3.org/2000/svg" xmlns:xlink="http://www.w3.org/1999/xlink" contentScriptType="application/ecmascript" contentStyleType="text/css" height="1064px" preserveAspectRatio="none" style="width:1116px;height:1064px;" version="1.1" viewBox="0 0 1116 1064" width="1116px" zoomAndPan="magnify"><defs><filter height="300%" id="f4b45cawusijh" width="300%" x="-1" y="-1"><feGaussianBlur result="blurOut" stdDeviation="2.0"/><feColorMatrix in="blurOut" result="blurOut2" type="matrix" values="0 0 0 0 0 0 0 0 0 0 0 0 0 0 0 0 0 0 .4 0"/><feOffset dx="4.0" dy="4.0" in="blurOut2" result="blurOut3"/><feBlend in="SourceGraphic" in2="blurOut3" mode="normal"/></filter></defs><g><text fill="#000000" font-family="sans-serif" font-size="18" lengthAdjust="spacingAndGlyphs" textLength="35" x="531.5" y="17.4023">SDK</text><!--MD5=[88656e78e5bedad418341b6ececa151e]
cluster AWS--><rect fill="#FEFECE" filter="url(#f4b45cawusijh)" height="102" rx="12.5" ry="12.5" style="stroke: #A80036; stroke-width: 1.5;" width="262" x="775.5" y="28.1992"/><rect fill="#FFFFFF" height="69.5117" rx="12.5" ry="12.5" style="stroke: #FFFFFF; stroke-width: 1.0;" width="256" x="778.5" y="57.6875"/><line style="stroke: #A80036; stroke-width: 1.5;" x1="775.5" x2="1037.5" y1="54.6875" y2="54.6875"/><text fill="#000000" font-family="sans-serif" font-size="14" lengthAdjust="spacingAndGlyphs" textLength="30" x="891.5" y="45.7344">AWS</text><!--MD5=[3dc306925771d6d17f21d0158ed27c1d]
cluster 사용중지--><rect fill="#FEFECE" filter="url(#f4b45cawusijh)" height="102" rx="12.5" ry="12.5" style="stroke: #A80036; stroke-width: 1.5;" width="86" x="315.5" y="360.1992"/><rect fill="#FFFFFF" height="69.5117" rx="12.5" ry="12.5" style="stroke: #FFFFFF; stroke-width: 1.0;" width="80" x="318.5" y="389.6875"/><line style="stroke: #A80036; stroke-width: 1.5;" x1="315.5" x2="401.5" y1="386.6875" y2="386.6875"/><text fill="#000000" font-family="sans-serif" font-size="14" lengthAdjust="spacingAndGlyphs" textLength="48" x="334.5" y="377.7344">사용중지</text><!--MD5=[611c1bcfec5131d7f6131f07ca4969a2]
cluster ADMINISTRATOR--><rect fill="#FEFECE" filter="url(#f4b45cawusijh)" height="404" rx="12.5" ry="12.5" style="stroke: #A80036; stroke-width: 1.5;" width="378" x="175.5" y="643.1992"/><rect fill="#FFFFFF" height="371.5117" rx="12.5" ry="12.5" style="stroke: #FFFFFF; stroke-width: 1.0;" width="372" x="178.5" y="672.6875"/><line style="stroke: #A80036; stroke-width: 1.5;" x1="175.5" x2="553.5" y1="669.6875" y2="669.6875"/><text fill="#000000" font-family="sans-serif" font-size="14" lengthAdjust="spacingAndGlyphs" textLength="115" x="307" y="660.7344">ADMINISTRATOR</text><!--MD5=[5820442bf0771afcf917cf397c1391b8]
cluster AUTHORIZED--><rect fill="#FEFECE" filter="url(#f4b45cawusijh)" height="308.5" rx="12.5" ry="12.5" style="stroke: #A80036; stroke-width: 1.5;" width="411" x="577.5" y="643.1992"/><rect fill="#FFFFFF" height="276.0117" rx="12.5" ry="12.5" style="stroke: #FFFFFF; stroke-width: 1.0;" width="405" x="580.5" y="672.6875"/><line style="stroke: #A80036; stroke-width: 1.5;" x1="577.5" x2="988.5" y1="669.6875" y2="669.6875"/><text fill="#000000" font-family="sans-serif" font-size="14" lengthAdjust="spacingAndGlyphs" textLength="89" x="738.5" y="660.7344">AUTHORIZED</text><g id="AWS.S3"><rect fill="#FEFECE" filter="url(#f4b45cawusijh)" height="50.6211" rx="12.5" ry="12.5" style="stroke: #A80036; stroke-width: 1.5;" width="75" x="946" y="63.1992"/><line style="stroke: #A80036; stroke-width: 1.5;" x1="946" x2="1021" y1="89.6875" y2="89.6875"/><text fill="#000000" font-family="sans-serif" font-size="14" lengthAdjust="spacingAndGlyphs" textLength="17" x="975" y="81.7344">S3</text><text fill="#000000" font-family="sans-serif" font-size="12" lengthAdjust="spacingAndGlyphs" textLength="55" x="951" y="106.2891">이미지, etc</text></g><g id="AWS.MetadataStore"><rect fill="#FEFECE" filter="url(#f4b45cawusijh)" height="50.6211" rx="12.5" ry="12.5" style="stroke: #A80036; stroke-width: 1.5;" width="119" x="792" y="63.1992"/><line style="stroke: #A80036; stroke-width: 1.5;" x1="792" x2="911" y1="89.6875" y2="89.6875"/><text fill="#000000" font-family="sans-serif" font-size="14" lengthAdjust="spacingAndGlyphs" textLength="99" x="802" y="81.7344">MetadataStore</text><text fill="#000000" font-family="sans-serif" font-size="12" lengthAdjust="spacingAndGlyphs" textLength="62" x="797" y="106.2891">dynamodb</text></g><g id="사용중지.reply"><rect fill="#FEFECE" filter="url(#f4b45cawusijh)" height="50.6211" rx="12.5" ry="12.5" style="stroke: #A80036; stroke-width: 1.5;" width="54" x="331.5" y="395.1992"/><line style="stroke: #A80036; stroke-width: 1.5;" x1="331.5" x2="385.5" y1="421.6875" y2="421.6875"/><text fill="#000000" font-family="sans-serif" font-size="14" lengthAdjust="spacingAndGlyphs" textLength="34" x="341.5" y="413.7344">reply</text><text fill="#000000" font-family="sans-serif" font-size="12" lengthAdjust="spacingAndGlyphs" textLength="20" x="336.5" y="438.2891">덧글</text></g><g id="ADMINISTRATOR.aggReport"><rect fill="#FEFECE" filter="url(#f4b45cawusijh)" height="50.6211" rx="12.5" ry="12.5" style="stroke: #A80036; stroke-width: 1.5;" width="92" x="196.5" y="789.1992"/><line style="stroke: #A80036; stroke-width: 1.5;" x1="196.5" x2="288.5" y1="815.6875" y2="815.6875"/><text fill="#000000" font-family="sans-serif" font-size="14" lengthAdjust="spacingAndGlyphs" textLength="72" x="206.5" y="807.7344">aggReport</text><text fill="#000000" font-family="sans-serif" font-size="12" lengthAdjust="spacingAndGlyphs" textLength="68" x="201.5" y="832.2891">신고된 글 집계</text></g><g id="ADMINISTRATOR.report"><rect fill="#FEFECE" filter="url(#f4b45cawusijh)" height="50.6211" rx="12.5" ry="12.5" style="stroke: #A80036; stroke-width: 1.5;" width="63" x="328" y="789.1992"/><line style="stroke: #A80036; stroke-width: 1.5;" x1="328" x2="391" y1="815.6875" y2="815.6875"/><text fill="#000000" font-family="sans-serif" font-size="14" lengthAdjust="spacingAndGlyphs" textLength="43" x="338" y="807.7344">report</text><text fill="#000000" font-family="sans-serif" font-size="12" lengthAdjust="spacingAndGlyphs" textLength="5" x="333" y="832.2891">?</text></g><g id="ADMINISTRATOR.administrator"><rect fill="#FEFECE" filter="url(#f4b45cawusijh)" height="50.6211" rx="12.5" ry="12.5" style="stroke: #A80036; stroke-width: 1.5;" width="113" x="352" y="678.1992"/><line style="stroke: #A80036; stroke-width: 1.5;" x1="352" x2="465" y1="704.6875" y2="704.6875"/><text fill="#000000" font-family="sans-serif" font-size="14" lengthAdjust="spacingAndGlyphs" textLength="93" x="362" y="696.7344">administrator</text><text fill="#000000" font-family="sans-serif" font-size="12" lengthAdjust="spacingAndGlyphs" textLength="30" x="357" y="721.2891">관리자</text></g><g id="ADMINISTRATOR.replyReport"><rect fill="#FEFECE" filter="url(#f4b45cawusijh)" height="50.6211" rx="12.5" ry="12.5" style="stroke: #A80036; stroke-width: 1.5;" width="100" x="437.5" y="900.1992"/><line style="stroke: #A80036; stroke-width: 1.5;" x1="437.5" x2="537.5" y1="926.6875" y2="926.6875"/><text fill="#000000" font-family="sans-serif" font-size="14" lengthAdjust="spacingAndGlyphs" textLength="80" x="447.5" y="918.7344">replyReport</text><text fill="#000000" font-family="sans-serif" font-size="12" lengthAdjust="spacingAndGlyphs" textLength="44" x="442.5" y="943.2891">신고 처리</text></g><g id="ADMINISTRATOR.admin_all"><rect fill="#FEFECE" filter="url(#f4b45cawusijh)" height="50.6211" rx="12.5" ry="12.5" style="stroke: #A80036; stroke-width: 1.5;" width="86" x="316.5" y="900.1992"/><line style="stroke: #A80036; stroke-width: 1.5;" x1="316.5" x2="402.5" y1="926.6875" y2="926.6875"/><text fill="#000000" font-family="sans-serif" font-size="14" lengthAdjust="spacingAndGlyphs" textLength="66" x="326.5" y="918.7344">admin_all</text><text fill="#000000" font-family="sans-serif" font-size="12" lengthAdjust="spacingAndGlyphs" textLength="59" x="321.5" y="943.2891">모든 리스트?</text></g><g id="ADMINISTRATOR.admin_list"><rect fill="#FEFECE" filter="url(#f4b45cawusijh)" height="50.6211" rx="12.5" ry="12.5" style="stroke: #A80036; stroke-width: 1.5;" width="90" x="191.5" y="900.1992"/><line style="stroke: #A80036; stroke-width: 1.5;" x1="191.5" x2="281.5" y1="926.6875" y2="926.6875"/><text fill="#000000" font-family="sans-serif" font-size="14" lengthAdjust="spacingAndGlyphs" textLength="70" x="201.5" y="918.7344">admin_list</text><text fill="#000000" font-family="sans-serif" font-size="12" lengthAdjust="spacingAndGlyphs" textLength="30" x="196.5" y="943.2891">리스트</text></g><ellipse cx="359.5" cy="1021.1992" fill="none" filter="url(#f4b45cawusijh)" rx="10" ry="10" style="stroke: #000000; stroke-width: 1.0;"/><ellipse cx="360" cy="1021.6992" fill="#000000" rx="6" ry="6" style="stroke: none; stroke-width: 1.0;"/><g id="AUTHORIZED.user_post"><rect fill="#FEFECE" filter="url(#f4b45cawusijh)" height="50.6211" rx="12.5" ry="12.5" style="stroke: #A80036; stroke-width: 1.5;" width="87" x="594" y="678.1992"/><line style="stroke: #A80036; stroke-width: 1.5;" x1="594" x2="681" y1="704.6875" y2="704.6875"/><text fill="#000000" font-family="sans-serif" font-size="14" lengthAdjust="spacingAndGlyphs" textLength="67" x="604" y="696.7344">user_post</text><text fill="#000000" font-family="sans-serif" font-size="12" lengthAdjust="spacingAndGlyphs" textLength="10" x="599" y="721.2891">글</text></g><g id="AUTHORIZED.user_comment"><rect fill="#FEFECE" filter="url(#f4b45cawusijh)" height="50.6211" rx="12.5" ry="12.5" style="stroke: #A80036; stroke-width: 1.5;" width="121" x="716" y="678.1992"/><line style="stroke: #A80036; stroke-width: 1.5;" x1="716" x2="837" y1="704.6875" y2="704.6875"/><text fill="#000000" font-family="sans-serif" font-size="14" lengthAdjust="spacingAndGlyphs" textLength="101" x="726" y="696.7344">user_comment</text><text fill="#000000" font-family="sans-serif" font-size="12" lengthAdjust="spacingAndGlyphs" textLength="20" x="721" y="721.2891">댓글</text></g><g id="AUTHORIZED.user_report"><rect fill="#FEFECE" filter="url(#f4b45cawusijh)" height="50.6211" rx="12.5" ry="12.5" style="stroke: #A80036; stroke-width: 1.5;" width="100" x="872.5" y="678.1992"/><line style="stroke: #A80036; stroke-width: 1.5;" x1="872.5" x2="972.5" y1="704.6875" y2="704.6875"/><text fill="#000000" font-family="sans-serif" font-size="14" lengthAdjust="spacingAndGlyphs" textLength="80" x="882.5" y="696.7344">user_report</text><text fill="#000000" font-family="sans-serif" font-size="12" lengthAdjust="spacingAndGlyphs" textLength="20" x="877.5" y="721.2891">신고</text></g><g id="AUTHORIZED.user_like"><rect fill="#FEFECE" filter="url(#f4b45cawusijh)" height="50.6211" rx="12.5" ry="12.5" style="stroke: #A80036; stroke-width: 1.5;" width="81" x="628" y="789.1992"/><line style="stroke: #A80036; stroke-width: 1.5;" x1="628" x2="709" y1="815.6875" y2="815.6875"/><text fill="#000000" font-family="sans-serif" font-size="14" lengthAdjust="spacingAndGlyphs" textLength="61" x="638" y="807.7344">user_like</text><text fill="#000000" font-family="sans-serif" font-size="12" lengthAdjust="spacingAndGlyphs" textLength="30" x="633" y="832.2891">좋아요</text></g><g id="AUTHORIZED.user_list"><rect fill="#FEFECE" filter="url(#f4b45cawusijh)" height="50.6211" rx="12.5" ry="12.5" style="stroke: #A80036; stroke-width: 1.5;" width="77" x="744" y="789.1992"/><line style="stroke: #A80036; stroke-width: 1.5;" x1="744" x2="821" y1="815.6875" y2="815.6875"/><text fill="#000000" font-family="sans-serif" font-size="14" lengthAdjust="spacingAndGlyphs" textLength="57" x="754" y="807.7344">user_list</text><text fill="#000000" font-family="sans-serif" font-size="12" lengthAdjust="spacingAndGlyphs" textLength="20" x="749" y="832.2891">목록</text></g><g id="AUTHORIZED.user_create"><rect fill="#FEFECE" filter="url(#f4b45cawusijh)" height="50.6211" rx="12.5" ry="12.5" style="stroke: #A80036; stroke-width: 1.5;" width="99" x="867" y="789.1992"/><line style="stroke: #A80036; stroke-width: 1.5;" x1="867" x2="966" y1="815.6875" y2="815.6875"/><text fill="#000000" font-family="sans-serif" font-size="14" lengthAdjust="spacingAndGlyphs" textLength="79" x="877" y="807.7344">user_create</text><text fill="#000000" font-family="sans-serif" font-size="12" lengthAdjust="spacingAndGlyphs" textLength="20" x="872" y="832.2891">생성</text></g><ellipse cx="782.5" cy="925.6992" fill="none" filter="url(#f4b45cawusijh)" rx="10" ry="10" style="stroke: #000000; stroke-width: 1.0;"/><ellipse cx="783" cy="926.1992" fill="#000000" rx="6" ry="6" style="stroke: none; stroke-width: 1.0;"/><g id="EntityFactory"><rect fill="#FEFECE" filter="url(#f4b45cawusijh)" height="50.6211" rx="12.5" ry="12.5" style="stroke: #A80036; stroke-width: 1.5;" width="108" x="648.5" y="63.1992"/><line style="stroke: #A80036; stroke-width: 1.5;" x1="648.5" x2="756.5" y1="89.6875" y2="89.6875"/><text fill="#000000" font-family="sans-serif" font-size="14" lengthAdjust="spacingAndGlyphs" textLength="88" x="658.5" y="81.7344">EntityFactory</text><text fill="#000000" font-family="sans-serif" font-size="12" lengthAdjust="spacingAndGlyphs" textLength="31" x="653.5" y="106.2891">entity</text></g><g id="yiguana"><rect fill="#FEFECE" filter="url(#f4b45cawusijh)" height="50.6211" rx="12.5" ry="12.5" style="stroke: #A80036; stroke-width: 1.5;" width="109" x="546" y="284.1992"/><line style="stroke: #A80036; stroke-width: 1.5;" x1="546" x2="655" y1="310.6875" y2="310.6875"/><text fill="#000000" font-family="sans-serif" font-size="14" lengthAdjust="spacingAndGlyphs" textLength="54" x="573.5" y="302.7344">yiguana</text><text fill="#000000" font-family="sans-serif" font-size="12" lengthAdjust="spacingAndGlyphs" textLength="89" x="551" y="327.2891">createYiguana()</text></g><g id="comment"><rect fill="#FEFECE" filter="url(#f4b45cawusijh)" height="50.6211" rx="12.5" ry="12.5" style="stroke: #A80036; stroke-width: 1.5;" width="84" x="132.5" y="395.1992"/><line style="stroke: #A80036; stroke-width: 1.5;" x1="132.5" x2="216.5" y1="421.6875" y2="421.6875"/><text fill="#000000" font-family="sans-serif" font-size="14" lengthAdjust="spacingAndGlyphs" textLength="64" x="142.5" y="413.7344">comment</text><text fill="#000000" font-family="sans-serif" font-size="12" lengthAdjust="spacingAndGlyphs" textLength="20" x="137.5" y="438.2891">댓글</text></g><g id="user"><rect fill="#FEFECE" filter="url(#f4b45cawusijh)" height="50.6211" rx="12.5" ry="12.5" style="stroke: #A80036; stroke-width: 1.5;" width="50" x="717.5" y="395.1992"/><line style="stroke: #A80036; stroke-width: 1.5;" x1="717.5" x2="767.5" y1="421.6875" y2="421.6875"/><text fill="#000000" font-family="sans-serif" font-size="14" lengthAdjust="spacingAndGlyphs" textLength="30" x="727.5" y="413.7344">user</text><text fill="#000000" font-family="sans-serif" font-size="12" lengthAdjust="spacingAndGlyphs" textLength="20" x="722.5" y="438.2891">유저</text></g><g id="common"><rect fill="#FEFECE" filter="url(#f4b45cawusijh)" height="50.6211" rx="12.5" ry="12.5" style="stroke: #A80036; stroke-width: 1.5;" width="100" x="840.5" y="395.1992"/><line style="stroke: #A80036; stroke-width: 1.5;" x1="840.5" x2="940.5" y1="421.6875" y2="421.6875"/><text fill="#000000" font-family="sans-serif" font-size="14" lengthAdjust="spacingAndGlyphs" textLength="60" x="860.5" y="413.7344">common</text><text fill="#000000" font-family="sans-serif" font-size="12" lengthAdjust="spacingAndGlyphs" textLength="80" x="845.5" y="438.2891">댓글: 공개된 API</text></g><g id="post"><rect fill="#FEFECE" filter="url(#f4b45cawusijh)" height="50.6211" rx="12.5" ry="12.5" style="stroke: #A80036; stroke-width: 1.5;" width="110" x="420.5" y="395.1992"/><line style="stroke: #A80036; stroke-width: 1.5;" x1="420.5" x2="530.5" y1="421.6875" y2="421.6875"/><text fill="#000000" font-family="sans-serif" font-size="14" lengthAdjust="spacingAndGlyphs" textLength="30" x="460.5" y="413.7344">post</text><text fill="#000000" font-family="sans-serif" font-size="12" lengthAdjust="spacingAndGlyphs" textLength="90" x="425.5" y="438.2891">글작성: 공개된 API</text></g><g id="list"><rect fill="#FEFECE" filter="url(#f4b45cawusijh)" height="50.6211" rx="12.5" ry="12.5" style="stroke: #A80036; stroke-width: 1.5;" width="104" x="348.5" y="567.1992"/><line style="stroke: #A80036; stroke-width: 1.5;" x1="348.5" x2="452.5" y1="593.6875" y2="593.6875"/><text fill="#000000" font-family="sans-serif" font-size="14" lengthAdjust="spacingAndGlyphs" textLength="20" x="390.5" y="585.7344">list</text><text fill="#000000" font-family="sans-serif" font-size="12" lengthAdjust="spacingAndGlyphs" textLength="84" x="353.5" y="610.2891">리스트를 가져온다</text></g><g id="create"><rect fill="#FEFECE" filter="url(#f4b45cawusijh)" height="50.6211" rx="12.5" ry="12.5" style="stroke: #A80036; stroke-width: 1.5;" width="62" x="230.5" y="567.1992"/><line style="stroke: #A80036; stroke-width: 1.5;" x1="230.5" x2="292.5" y1="593.6875" y2="593.6875"/><text fill="#000000" font-family="sans-serif" font-size="14" lengthAdjust="spacingAndGlyphs" textLength="42" x="240.5" y="585.7344">create</text><text fill="#000000" font-family="sans-serif" font-size="12" lengthAdjust="spacingAndGlyphs" textLength="20" x="235.5" y="610.2891">생성</text></g><g id="read"><rect fill="#FEFECE" filter="url(#f4b45cawusijh)" height="50.6211" rx="12.5" ry="12.5" style="stroke: #A80036; stroke-width: 1.5;" width="51" x="7" y="567.1992"/><line style="stroke: #A80036; stroke-width: 1.5;" x1="7" x2="58" y1="593.6875" y2="593.6875"/><text fill="#000000" font-family="sans-serif" font-size="14" lengthAdjust="spacingAndGlyphs" textLength="31" x="17" y="585.7344">read</text><text fill="#000000" font-family="sans-serif" font-size="12" lengthAdjust="spacingAndGlyphs" textLength="20" x="12" y="610.2891">읽기</text></g><g id="del"><rect fill="#FEFECE" filter="url(#f4b45cawusijh)" height="50.6211" rx="12.5" ry="12.5" style="stroke: #A80036; stroke-width: 1.5;" width="50" x="104.5" y="567.1992"/><line style="stroke: #A80036; stroke-width: 1.5;" x1="104.5" x2="154.5" y1="593.6875" y2="593.6875"/><text fill="#000000" font-family="sans-serif" font-size="14" lengthAdjust="spacingAndGlyphs" textLength="21" x="119" y="585.7344">del</text><text fill="#000000" font-family="sans-serif" font-size="12" lengthAdjust="spacingAndGlyphs" textLength="20" x="109.5" y="610.2891">삭제</text></g><g id="view"><rect fill="#FEFECE" filter="url(#f4b45cawusijh)" height="50.6211" rx="12.5" ry="12.5" style="stroke: #A80036; stroke-width: 1.5;" width="50" x="497.5" y="567.1992"/><line style="stroke: #A80036; stroke-width: 1.5;" x1="497.5" x2="547.5" y1="593.6875" y2="593.6875"/><text fill="#000000" font-family="sans-serif" font-size="14" lengthAdjust="spacingAndGlyphs" textLength="30" x="507.5" y="585.7344">view</text><text fill="#000000" font-family="sans-serif" font-size="12" lengthAdjust="spacingAndGlyphs" textLength="20" x="502.5" y="610.2891">읽기</text></g><g id="get"><rect fill="#FEFECE" filter="url(#f4b45cawusijh)" height="50.6211" rx="12.5" ry="12.5" style="stroke: #A80036; stroke-width: 1.5;" width="64" x="866.5" y="567.1992"/><line style="stroke: #A80036; stroke-width: 1.5;" x1="866.5" x2="930.5" y1="593.6875" y2="593.6875"/><text fill="#000000" font-family="sans-serif" font-size="14" lengthAdjust="spacingAndGlyphs" textLength="22" x="887.5" y="585.7344">get</text><text fill="#000000" font-family="sans-serif" font-size="12" lengthAdjust="spacingAndGlyphs" textLength="44" x="871.5" y="610.2891">가져온다.</text></g><g id="유저"><rect fill="#FEFECE" filter="url(#f4b45cawusijh)" height="50" rx="12.5" ry="12.5" style="stroke: #A80036; stroke-width: 1.5;" width="50" x="751.5" y="174.1992"/><line style="stroke: #A80036; stroke-width: 1.5;" x1="751.5" x2="801.5" y1="200.6875" y2="200.6875"/><text fill="#000000" font-family="sans-serif" font-size="14" lengthAdjust="spacingAndGlyphs" textLength="24" x="764.5" y="192.7344">유저</text></g><g id="createUploadUrl"><rect fill="#FEFECE" filter="url(#f4b45cawusijh)" height="50" rx="12.5" ry="12.5" style="stroke: #A80036; stroke-width: 1.5;" width="131" x="966" y="567.6992"/><line style="stroke: #A80036; stroke-width: 1.5;" x1="966" x2="1097" y1="594.1875" y2="594.1875"/><text fill="#000000" font-family="sans-serif" font-size="14" lengthAdjust="spacingAndGlyphs" textLength="111" x="976" y="586.2344">createUploadUrl</text></g><!--MD5=[ab249b397e11a1a8f1400ed430639bba]
link MetadataStore to 유저--><path d="M834.48,114.3192 C823.09,130.8092 808.05,152.5592 796.15,169.7792 " fill="none" id="MetadataStore-&gt;유저" style="stroke: #A80036; stroke-width: 1.0;"/><polygon fill="#A80036" points="793.19,174.0492,801.597,168.9187,796.0323,169.9357,795.0154,164.371,793.19,174.0492" style="stroke: #A80036; stroke-width: 1.0;"/><!--MD5=[3652586b4b7f96dcac7f19f5a736e60e]
link EntityFactory to 유저--><path d="M719.29,114.3192 C730.53,130.8092 745.37,152.5592 757.11,169.7792 " fill="none" id="EntityFactory-&gt;유저" style="stroke: #A80036; stroke-width: 1.0;"/><polygon fill="#A80036" points="760.03,174.0492,758.2431,164.3638,757.204,169.9244,751.6434,168.8854,760.03,174.0492" style="stroke: #A80036; stroke-width: 1.0;"/><!--MD5=[064ca8a8d6d9a5417d45ec4457c718ac]
link S3 to 유저--><path d="M959.22,114.3792 C950.13,122.6992 939.36,131.5492 928.5,138.1992 C889.11,162.3092 838.35,180.0192 806.61,189.7192 " fill="none" id="S3-&gt;유저" style="stroke: #A80036; stroke-width: 1.0;"/><polygon fill="#A80036" points="801.69,191.2092,811.4615,192.441,806.4772,189.7659,809.1523,184.7816,801.69,191.2092" style="stroke: #A80036; stroke-width: 1.0;"/><!--MD5=[0e0518b64889a9fd080bc6937d4489cc]
link 유저 to yiguana--><path d="M751.28,215.7492 C723.54,232.8492 678.42,260.6592 644.76,281.4192 " fill="none" id="유저-&gt;yiguana" style="stroke: #A80036; stroke-width: 1.0;"/><polygon fill="#A80036" points="640.29,284.1692,650.0493,282.8444,644.5444,281.5424,645.8464,276.0374,640.29,284.1692" style="stroke: #A80036; stroke-width: 1.0;"/><!--MD5=[e4cdf41d05eaee34c94043c15d2884e6]
link yiguana to common--><path d="M655.06,317.7892 C692.74,323.9092 743.44,334.6092 785.5,352.1992 C809.85,362.3792 834.8,378.1492 854.26,391.8892 " fill="none" id="yiguana-&gt;common" style="stroke: #A80036; stroke-width: 1.0;"/><polygon fill="#A80036" points="858.58,394.9692,853.5701,386.4898,854.5075,392.0684,848.9288,393.0058,858.58,394.9692" style="stroke: #A80036; stroke-width: 1.0;"/><!--MD5=[3e07eedba33976a2dfae5188cd1a3c18]
link yiguana to post--><path d="M572.14,335.4292 C552.96,352.1592 527.59,374.2792 507.66,391.6492 " fill="none" id="yiguana-&gt;post" style="stroke: #A80036; stroke-width: 1.0;"/><polygon fill="#A80036" points="503.75,395.0592,513.1635,392.1632,507.52,391.7748,507.9084,386.1313,503.75,395.0592" style="stroke: #A80036; stroke-width: 1.0;"/><!--MD5=[fc8f5a36f3bd3d7a4e06e515d980175e]
link yiguana to comment--><path d="M545.86,313.7492 C487.69,318.1292 393.47,328.4592 315.5,352.1992 C282.73,362.1792 248.01,378.7192 221.22,392.9292 " fill="none" id="yiguana-&gt;comment" style="stroke: #A80036; stroke-width: 1.0;"/><polygon fill="#A80036" points="216.65,395.3692,226.4732,394.6584,221.0606,393.0141,222.7049,387.6015,216.65,395.3692" style="stroke: #A80036; stroke-width: 1.0;"/><!--MD5=[ef7cd522d7e449d906e67819c3b05d86]
link yiguana to reply--><path d="M545.61,311.2792 C503.49,314.1792 445.61,323.6892 403.5,352.1992 C389.67,361.5692 379,376.7392 371.52,390.3292 " fill="none" id="yiguana-&gt;reply" style="stroke: #A80036; stroke-width: 1.0;"/><polygon fill="#A80036" points="369.11,394.8692,376.8625,388.7947,371.454,390.4527,369.7961,385.0443,369.11,394.8692" style="stroke: #A80036; stroke-width: 1.0;"/><!--MD5=[1b372dfe786bb013bda26cc06f3bd8d3]
link yiguana to user--><path d="M632.72,335.4292 C657.01,354.0792 690.03,379.4292 713.5,397.4392 " fill="none" id="yiguana-&gt;user" style="stroke: #A80036; stroke-width: 1.0;"/><polygon fill="#A80036" points="717.47,400.4892,712.7737,391.8321,713.5063,397.4414,707.8971,398.174,717.47,400.4892" style="stroke: #A80036; stroke-width: 1.0;"/><!--MD5=[3d397ba097e6e544f1001a4c0e87f621]
link common to createUploadUrl--><path d="M911,446.4192 C936.84,477.5692 981.13,530.9692 1008.21,563.6192 " fill="none" id="common-&gt;createUploadUrl" style="stroke: #A80036; stroke-width: 1.0;"/><polygon fill="#A80036" points="1011.43,567.4992,1008.7655,558.0176,1008.2389,563.6499,1002.6067,563.1233,1011.43,567.4992" style="stroke: #A80036; stroke-width: 1.0;"/><!--MD5=[273f28664663ed4638f010e03af4c259]
reverse link S3 to createUploadUrl--><path d="M994.21,119.1692 C1008.35,160.7992 1031.5,239.4992 1031.5,308.6992 C1031.5,308.6992 1031.5,308.6992 1031.5,421.6992 C1031.5,473.6392 1031.5,534.5192 1031.5,567.4892 " fill="none" id="S3&lt;-createUploadUrl" style="stroke: #A80036; stroke-width: 1.0;"/><polygon fill="#A80036" points="992.53,114.2792,991.6522,124.0889,994.1454,119.0111,999.2232,121.5042,992.53,114.2792" style="stroke: #A80036; stroke-width: 1.0;"/><!--MD5=[2b9a981aa259f5f28acbcf29105938f7]
link post to list--><path d="M464.59,446.4192 C451.04,477.1392 427.94,529.4992 413.49,562.2592 " fill="none" id="post-&gt;list" style="stroke: #A80036; stroke-width: 1.0;"/><polygon fill="#A80036" points="411.42,566.9492,418.7094,560.3262,413.4361,562.3737,411.3885,557.1004,411.42,566.9492" style="stroke: #A80036; stroke-width: 1.0;"/><!--MD5=[79c4b524607c58bc91f4bbc6492d7ddb]
link post to create--><path d="M444.38,446.4192 C405.16,477.5792 337.9,531.0092 296.8,563.6592 " fill="none" id="post-&gt;create" style="stroke: #A80036; stroke-width: 1.0;"/><polygon fill="#A80036" points="292.65,566.9492,302.1833,564.4759,296.5627,563.8362,297.2024,558.2156,292.65,566.9492" style="stroke: #A80036; stroke-width: 1.0;"/><!--MD5=[adbad715128e8a0a5cb8287d00d0084c]
link post to del--><path d="M440.45,446.3192 C428.37,454.3592 414.57,463.0492 401.5,470.1992 C316.43,516.6892 210.1,560.2392 159.26,580.2292 " fill="none" id="post-&gt;del" style="stroke: #A80036; stroke-width: 1.0;"/><polygon fill="#A80036" points="154.52,582.0892,164.3593,582.5232,159.1741,580.2618,161.4355,575.0767,154.52,582.0892" style="stroke: #A80036; stroke-width: 1.0;"/><!--MD5=[d93ebe0da4f899e6613b9b97cc82ca54]
link post to view--><path d="M482.33,446.4192 C490.79,477.0092 505.19,529.0692 514.25,561.8592 " fill="none" id="post-&gt;view" style="stroke: #A80036; stroke-width: 1.0;"/><polygon fill="#A80036" points="515.66,566.9492,517.1217,557.2094,514.3299,562.1294,509.4099,559.3376,515.66,566.9492" style="stroke: #A80036; stroke-width: 1.0;"/><!--MD5=[77a56133c26edf4b88a1bf9b5c3a0266]
link comment to list--><path d="M207.36,446.4192 C248.87,477.6392 320.1,531.2292 363.49,563.8592 " fill="none" id="comment-&gt;list" style="stroke: #A80036; stroke-width: 1.0;"/><polygon fill="#A80036" points="367.6,566.9492,362.8148,558.341,363.6052,563.9424,358.0038,564.7327,367.6,566.9492" style="stroke: #A80036; stroke-width: 1.0;"/><!--MD5=[8f75d0154d12a66e57a0e5623e3aec4d]
link comment to create--><path d="M187.15,446.4192 C202.87,477.1392 229.67,529.4992 246.44,562.2592 " fill="none" id="comment-&gt;create" style="stroke: #A80036; stroke-width: 1.0;"/><polygon fill="#A80036" points="248.83,566.9492,248.2696,557.1163,246.5426,562.5031,241.1558,560.7761,248.83,566.9492" style="stroke: #A80036; stroke-width: 1.0;"/><!--MD5=[7ae63d3911bed20b8aa01a6f0a6e8d78]
link comment to read--><path d="M153.85,446.4192 C127.98,477.3892 83.74,530.3592 56.42,563.0692 " fill="none" id="comment-&gt;read" style="stroke: #A80036; stroke-width: 1.0;"/><polygon fill="#A80036" points="53.17,566.9492,62.0204,562.6283,56.385,563.1199,55.8934,557.4844,53.17,566.9492" style="stroke: #A80036; stroke-width: 1.0;"/><!--MD5=[266027693d031a0bc6b2119320c38764]
link comment to del--><path d="M166.35,446.3192 C160.95,463.0992 153.88,485.8692 148.5,506.1992 C143.64,524.5792 138.99,545.4092 135.51,561.9092 " fill="none" id="comment-&gt;del" style="stroke: #A80036; stroke-width: 1.0;"/><polygon fill="#A80036" points="134.47,566.8792,140.2113,558.8769,135.4835,561.983,132.3773,557.2553,134.47,566.8792" style="stroke: #A80036; stroke-width: 1.0;"/><!--MD5=[61fee248f8f79c93a7a56ed2d7e7e1e8]
link user to get--><path d="M767.55,440.6392 C788.11,456.8292 817.33,481.3792 839.5,506.1992 C855.12,523.6792 870.09,545.4492 881.04,562.6492 " fill="none" id="user-&gt;get" style="stroke: #A80036; stroke-width: 1.0;"/><polygon fill="#A80036" points="883.73,566.9192,882.3048,557.174,881.0595,562.6921,875.5414,561.4468,883.73,566.9192" style="stroke: #A80036; stroke-width: 1.0;"/><!--MD5=[013cad4372b990f2aeee95d614549c46]
link yiguana to administrator--><path d="M604.79,335.2092 C613.16,390.8992 625.9,528.9992 565.5,618.1992 C543.25,651.0592 503.92,672.1992 470.19,685.1192 " fill="none" id="yiguana-&gt;administrator" style="stroke: #A80036; stroke-width: 1.0;"/><polygon fill="#A80036" points="465.25,686.9592,475.0815,687.5444,469.9316,685.2036,472.2725,680.0538,465.25,686.9592" style="stroke: #A80036; stroke-width: 1.0;"/><!--MD5=[47929b515da4311971aaf41edc558a58]
link replyReport to *end*ADMINISTRATOR--><path d="M453.87,951.2692 C426.83,971.0192 390.37,997.6492 371.67,1011.3092 " fill="none" id="replyReport-&gt;*end*ADMINISTRATOR" style="stroke: #A80036; stroke-width: 1.0;"/><polygon fill="#A80036" points="367.32,1014.4892,376.947,1012.4103,371.3575,1011.5399,372.228,1005.9504,367.32,1014.4892" style="stroke: #A80036; stroke-width: 1.0;"/><!--MD5=[6456245570d3d26685b35921083ea12a]
link administrator to replyReport--><path d="M417.41,729.5092 C432.06,770.2992 461.17,851.3692 476.87,895.0992 " fill="none" id="administrator-&gt;replyReport" style="stroke: #A80036; stroke-width: 1.0;"/><polygon fill="#A80036" points="478.62,899.9792,479.3203,890.1553,476.9193,895.2773,471.7973,892.8764,478.62,899.9792" style="stroke: #A80036; stroke-width: 1.0;"/><!--MD5=[99c26548b98b04b998edb9b651a2af04]
link administrator to aggReport--><path d="M370.83,729.4292 C345.04,746.3692 310.84,768.8292 284.22,786.2992 " fill="none" id="administrator-&gt;aggReport" style="stroke: #A80036; stroke-width: 1.0;"/><polygon fill="#A80036" points="280.02,789.0592,289.7376,787.4568,284.1978,786.3122,285.3424,780.7723,280.02,789.0592" style="stroke: #A80036; stroke-width: 1.0;"/><!--MD5=[832d4606ce5a8c659269b988af649463]
link administrator to report--><path d="M397.38,729.4292 C390.05,745.7392 380.42,767.1692 372.7,784.3392 " fill="none" id="administrator-&gt;report" style="stroke: #A80036; stroke-width: 1.0;"/><polygon fill="#A80036" points="370.57,789.0592,377.9015,782.4829,372.6153,784.4967,370.6015,779.2104,370.57,789.0592" style="stroke: #A80036; stroke-width: 1.0;"/><!--MD5=[35446dc309a462cc45d0231ffc23c12b]
link aggReport to admin_list--><path d="M241.14,840.4292 C240.25,856.5992 239.08,877.8092 238.14,894.8992 " fill="none" id="aggReport-&gt;admin_list" style="stroke: #A80036; stroke-width: 1.0;"/><polygon fill="#A80036" points="237.86,900.0592,242.342,891.2893,238.131,895.0666,234.3537,890.8556,237.86,900.0592" style="stroke: #A80036; stroke-width: 1.0;"/><!--MD5=[f0c37b794920b88360b52e55e3eacb89]
link report to admin_all--><path d="M359.5,840.4292 C359.5,856.5992 359.5,877.8092 359.5,894.8992 " fill="none" id="report-&gt;admin_all" style="stroke: #A80036; stroke-width: 1.0;"/><polygon fill="#A80036" points="359.5,900.0592,363.5,891.0592,359.5,895.0592,355.5,891.0592,359.5,900.0592" style="stroke: #A80036; stroke-width: 1.0;"/><!--MD5=[cf72a22dfeb09997d77292d2f6037881]
link report to admin_list--><path d="M331.59,840.4292 C312.72,857.1592 287.76,879.2792 268.15,896.6492 " fill="none" id="report-&gt;admin_list" style="stroke: #A80036; stroke-width: 1.0;"/><polygon fill="#A80036" points="264.3,900.0592,273.6898,897.0874,268.0433,896.7445,268.3862,891.098,264.3,900.0592" style="stroke: #A80036; stroke-width: 1.0;"/><!--MD5=[b09addcfdfa9db468c8f8d009baa600a]
link admin_list to *end*ADMINISTRATOR--><path d="M268.82,951.2692 C294.8,971.0192 329.83,997.6492 347.8,1011.3092 " fill="none" id="admin_list-&gt;*end*ADMINISTRATOR" style="stroke: #A80036; stroke-width: 1.0;"/><polygon fill="#A80036" points="351.99,1014.4892,347.2394,1005.8619,348.0073,1011.4663,342.4028,1012.2342,351.99,1014.4892" style="stroke: #A80036; stroke-width: 1.0;"/><!--MD5=[2cf41760aaddba33724fd7dabfafd5e9]
link admin_all to *end*ADMINISTRATOR--><path d="M359.5,951.2692 C359.5,968.6492 359.5,991.3692 359.5,1005.8792 " fill="none" id="admin_all-&gt;*end*ADMINISTRATOR" style="stroke: #A80036; stroke-width: 1.0;"/><polygon fill="#A80036" points="359.5,1011.1892,363.5,1002.1892,359.5,1006.1892,355.5,1002.1892,359.5,1011.1892" style="stroke: #A80036; stroke-width: 1.0;"/><!--MD5=[3e25e59008e1774e41d2f79b6f352811]
link user to user_post--><path d="M733.18,446.6392 C713.84,498.3992 669.41,617.3092 648.61,672.9592 " fill="none" id="user-&gt;user_post" style="stroke: #A80036; stroke-width: 1.0;"/><polygon fill="#A80036" points="646.8,677.8192,653.7054,670.7967,648.5556,673.1376,646.2148,667.9878,646.8,677.8192" style="stroke: #A80036; stroke-width: 1.0;"/><!--MD5=[b33d5d904d0fdb075d5acdb0a57b9694]
link user to user_comment--><path d="M745.52,446.6392 C751.77,498.2992 766.11,616.8292 772.86,672.6192 " fill="none" id="user-&gt;user_comment" style="stroke: #A80036; stroke-width: 1.0;"/><polygon fill="#A80036" points="773.49,677.8192,776.3561,668.3966,772.8768,672.857,768.4165,669.3777,773.49,677.8192" style="stroke: #A80036; stroke-width: 1.0;"/><!--MD5=[db72964f54985091631b50b61b7a52b9]
link user to user_report--><path d="M753.77,446.2592 C771.75,484.4592 809.04,559.7592 849.5,618.1992 C863.13,637.8892 880.61,658.2492 895.04,674.0492 " fill="none" id="user-&gt;user_report" style="stroke: #A80036; stroke-width: 1.0;"/><polygon fill="#A80036" points="898.64,677.9692,895.4989,668.6347,895.2581,674.2864,889.6064,674.0457,898.64,677.9692" style="stroke: #A80036; stroke-width: 1.0;"/><!--MD5=[536b065770a4e192ae26ca9f71480a4c]
link user_post to user_list--><path d="M670.4,729.4292 C692.74,746.2292 722.32,768.4592 745.48,785.8692 " fill="none" id="user_post-&gt;user_list" style="stroke: #A80036; stroke-width: 1.0;"/><polygon fill="#A80036" points="749.73,789.0592,744.93,780.4592,745.73,786.0592,740.13,786.8592,749.73,789.0592" style="stroke: #A80036; stroke-width: 1.0;"/><!--MD5=[14859eeae45dfc26190a792aae91034f]
link user_post to user_like--><path d="M644.53,729.4292 C649.13,745.5992 655.16,766.8092 660.03,783.8992 " fill="none" id="user_post-&gt;user_like" style="stroke: #A80036; stroke-width: 1.0;"/><polygon fill="#A80036" points="661.49,789.0592,662.898,779.3115,660.1334,784.2468,655.1981,781.4821,661.49,789.0592" style="stroke: #A80036; stroke-width: 1.0;"/><!--MD5=[7a81ffd54dbbddcb896dd3202d4c4aa9]
link user_comment to user_list--><path d="M777.86,729.4292 C778.75,745.5992 779.92,766.8092 780.86,783.8992 " fill="none" id="user_comment-&gt;user_list" style="stroke: #A80036; stroke-width: 1.0;"/><polygon fill="#A80036" points="781.14,789.0592,784.6463,779.8556,780.869,784.0666,776.658,780.2893,781.14,789.0592" style="stroke: #A80036; stroke-width: 1.0;"/><!--MD5=[87aa53ae488a6d7eb5ba0b87e16c167e]
link user_comment to user_like--><path d="M751.99,729.4292 C735.56,746.0192 713.87,767.9092 696.72,785.2192 " fill="none" id="user_comment-&gt;user_like" style="stroke: #A80036; stroke-width: 1.0;"/><polygon fill="#A80036" points="692.91,789.0592,702.088,785.4865,696.4312,785.5094,696.4083,779.8526,692.91,789.0592" style="stroke: #A80036; stroke-width: 1.0;"/><!--MD5=[25257610bdb35e888fc6ffbff0b9fe59]
link user_report to user_list--><path d="M890.73,729.4292 C869.16,746.2292 840.61,768.4592 818.24,785.8692 " fill="none" id="user_report-&gt;user_list" style="stroke: #A80036; stroke-width: 1.0;"/><polygon fill="#A80036" points="814.14,789.0592,823.6981,786.684,818.0845,785.9865,818.7819,780.3729,814.14,789.0592" style="stroke: #A80036; stroke-width: 1.0;"/><!--MD5=[2704796daa000232b37bb78dd5e34a14]
link user_report to user_create--><path d="M921.14,729.4292 C920.25,745.5992 919.08,766.8092 918.14,783.8992 " fill="none" id="user_report-&gt;user_create" style="stroke: #A80036; stroke-width: 1.0;"/><polygon fill="#A80036" points="917.86,789.0592,922.342,780.2893,918.131,784.0666,914.3537,779.8556,917.86,789.0592" style="stroke: #A80036; stroke-width: 1.0;"/><!--MD5=[84627461a81eeb40de87872fd802011a]
link user_create to *end*AUTHORIZED--><path d="M886.09,840.4292 C856.82,864.2392 814.12,898.9792 793.91,915.4192 " fill="none" id="user_create-&gt;*end*AUTHORIZED" style="stroke: #A80036; stroke-width: 1.0;"/><polygon fill="#A80036" points="789.95,918.6392,799.4585,916.0723,793.8319,915.4879,794.4163,909.8613,789.95,918.6392" style="stroke: #A80036; stroke-width: 1.0;"/><!--MD5=[c6ed23dc5aec1fad5bb0a1ceca9d2d3a]
link user_list to *end*AUTHORIZED--><path d="M782.5,840.4292 C782.5,862.0592 782.5,892.7192 782.5,910.4692 " fill="none" id="user_list-&gt;*end*AUTHORIZED" style="stroke: #A80036; stroke-width: 1.0;"/><polygon fill="#A80036" points="782.5,915.5392,786.5,906.5392,782.5,910.5392,778.5,906.5392,782.5,915.5392" style="stroke: #A80036; stroke-width: 1.0;"/><!--MD5=[8a09643c62a0cfeaa63428211b95b20d]
link user_like to *end*AUTHORIZED--><path d="M694.37,840.4292 C718.8,863.7892 754.23,897.6692 771.8,914.4692 " fill="none" id="user_like-&gt;*end*AUTHORIZED" style="stroke: #A80036; stroke-width: 1.0;"/><polygon fill="#A80036" points="775.47,917.9692,771.7311,908.8576,771.8568,914.5131,766.2013,914.6388,775.47,917.9692" style="stroke: #A80036; stroke-width: 1.0;"/><!--MD5=[8b1a2991f81c74e3be610659f404ec1a]
@startuml
title SDK

top to bottom direction

EntityFactory: entity

state AWS {
    S3: 이미지, etc
    MetadataStore: dynamodb
}

yiguana: createYiguana()
comment: 댓글
state 사용중지 {
    reply: 덧글
}
user: 유저
common: 댓글: 공개된 API
post: 글작성: 공개된 API

list: 리스트를 가져온다
create: 생성
read: 읽기
del: 삭제
view: 읽기
get: 가져온다.

MetadataStore -down-> 유저
EntityFactory -down-> 유저
S3 -down-> 유저
유저 - -> yiguana
yiguana - -> common
yiguana - -> post
yiguana - -> comment
yiguana - -> reply
yiguana - -> user

common - -down-> createUploadUrl
createUploadUrl - -up-> S3

post - - -> list
post - - -> create
post - - -> del
post - - -> view
comment - - -> list
comment - - -> create
comment - - -> read
comment - - -> del

user - - -> get

state ADMINISTRATOR {
    aggReport: 신고된 글 집계
    report: ?

    yiguana - - - - -> administrator
    replyReport: 신고 처리
    admin_all: 모든 리스트?
    admin_list: 리스트
    replyReport - -> [*]
    administrator: 관리자
    administrator - -> replyReport
    administrator - -> aggReport
    administrator - -> report

    aggReport - -> admin_list
    report - -> admin_all
    report - -> admin_list

    admin_list - -> [*]
    admin_all - -> [*]
}

state AUTHORIZED {
    user_post: 글
    user_comment: 댓글
    user_report: 신고
    user_like: 좋아요
    user_list: 목록
    user_create: 생성

    user - - - -> user_post
    user - - - -> user_comment
    user - - - -> user_report

    user_post - -> user_list
    user_post - -> user_like
    user_comment - -> user_list
    user_comment - -> user_like
    user_report - -> user_list
    user_report - -> user_create

    user_create - -> [*]
    user_list - -> [*]
    user_like - -> [*]
}

@enduml

PlantUML version 1.2020.15(Sun Jun 28 20:39:45 KST 2020)
(GPL source distribution)
Java Runtime: OpenJDK Runtime Environment
JVM: OpenJDK 64-Bit Server VM
Default Encoding: UTF-8
Language: ko
Country: KR
--></g></svg>