<?xml version="1.0" encoding="UTF-8" standalone="no"?><svg xmlns="http://www.w3.org/2000/svg" xmlns:xlink="http://www.w3.org/1999/xlink" contentScriptType="application/ecmascript" contentStyleType="text/css" height="1136px" preserveAspectRatio="none" style="width:1474px;height:1136px;" version="1.1" viewBox="0 0 1474 1136" width="1474px" zoomAndPan="magnify"><defs><filter height="300%" id="f1bcledzhq7z0v" width="300%" x="-1" y="-1"><feGaussianBlur result="blurOut" stdDeviation="2.0"/><feColorMatrix in="blurOut" result="blurOut2" type="matrix" values="0 0 0 0 0 0 0 0 0 0 0 0 0 0 0 0 0 0 .4 0"/><feOffset dx="4.0" dy="4.0" in="blurOut2" result="blurOut3"/><feBlend in="SourceGraphic" in2="blurOut3" mode="normal"/></filter></defs><g><text fill="#000000" font-family="sans-serif" font-size="18" lengthAdjust="spacingAndGlyphs" textLength="35" x="710.5" y="17.4023">SDK</text><!--MD5=[88656e78e5bedad418341b6ececa151e]
cluster AWS--><rect fill="#FEFECE" filter="url(#f1bcledzhq7z0v)" height="102" rx="12.5" ry="12.5" style="stroke: #A80036; stroke-width: 1.5;" width="262" x="965" y="28.1992"/><rect fill="#FFFFFF" height="69.5117" rx="12.5" ry="12.5" style="stroke: #FFFFFF; stroke-width: 1.0;" width="256" x="968" y="57.6875"/><line style="stroke: #A80036; stroke-width: 1.5;" x1="965" x2="1227" y1="54.6875" y2="54.6875"/><text fill="#000000" font-family="sans-serif" font-size="14" lengthAdjust="spacingAndGlyphs" textLength="30" x="1081" y="45.7344">AWS</text><!--MD5=[3dc306925771d6d17f21d0158ed27c1d]
cluster 사용중지--><rect fill="#FEFECE" filter="url(#f1bcledzhq7z0v)" height="102" rx="12.5" ry="12.5" style="stroke: #A80036; stroke-width: 1.5;" width="86" x="678" y="367.1992"/><rect fill="#FFFFFF" height="69.5117" rx="12.5" ry="12.5" style="stroke: #FFFFFF; stroke-width: 1.0;" width="80" x="681" y="396.6875"/><line style="stroke: #A80036; stroke-width: 1.5;" x1="678" x2="764" y1="393.6875" y2="393.6875"/><text fill="#000000" font-family="sans-serif" font-size="14" lengthAdjust="spacingAndGlyphs" textLength="48" x="697" y="384.7344">사용중지</text><!--MD5=[8b4700f0355dc61961b02fa66f9ad795]
cluster Administrator--><rect fill="#FEFECE" filter="url(#f1bcledzhq7z0v)" height="102" rx="12.5" ry="12.5" style="stroke: #A80036; stroke-width: 1.5;" width="146" x="521" y="700.1992"/><rect fill="#FFFFFF" height="69.5117" rx="12.5" ry="12.5" style="stroke: #FFFFFF; stroke-width: 1.0;" width="140" x="524" y="729.6875"/><line style="stroke: #A80036; stroke-width: 1.5;" x1="521" x2="667" y1="726.6875" y2="726.6875"/><text fill="#000000" font-family="sans-serif" font-size="14" lengthAdjust="spacingAndGlyphs" textLength="95" x="546.5" y="717.7344">Administrator</text><!--MD5=[3181c779ca4e1473bd059054d80f8e89]
cluster S3_Access--><rect fill="#FEFECE" filter="url(#f1bcledzhq7z0v)" height="118" rx="12.5" ry="12.5" style="stroke: #A80036; stroke-width: 1.5;" width="312" x="987" y="359.1992"/><rect fill="#FFFFFF" height="85.5117" rx="12.5" ry="12.5" style="stroke: #FFFFFF; stroke-width: 1.0;" width="306" x="990" y="388.6875"/><line style="stroke: #A80036; stroke-width: 1.5;" x1="987" x2="1299" y1="385.6875" y2="385.6875"/><text fill="#000000" font-family="sans-serif" font-size="14" lengthAdjust="spacingAndGlyphs" textLength="70" x="1108" y="376.7344">S3_Access</text><!--MD5=[31b70acb8e92cca560989dfd634c53e9]
cluster authorized--><rect fill="#FEFECE" filter="url(#f1bcledzhq7z0v)" height="212" rx="12.5" ry="12.5" style="stroke: #A80036; stroke-width: 1.5;" width="411" x="7" y="700.6992"/><rect fill="#FFFFFF" height="179.5117" rx="12.5" ry="12.5" style="stroke: #FFFFFF; stroke-width: 1.0;" width="405" x="10" y="730.1875"/><line style="stroke: #A80036; stroke-width: 1.5;" x1="7" x2="418" y1="727.1875" y2="727.1875"/><text fill="#000000" font-family="sans-serif" font-size="14" lengthAdjust="spacingAndGlyphs" textLength="75" x="175" y="718.2344">authorized</text><g id="AWS.S3"><rect fill="#FEFECE" filter="url(#f1bcledzhq7z0v)" height="50.6211" rx="12.5" ry="12.5" style="stroke: #A80036; stroke-width: 1.5;" width="75" x="1135.5" y="63.1992"/><line style="stroke: #A80036; stroke-width: 1.5;" x1="1135.5" x2="1210.5" y1="89.6875" y2="89.6875"/><text fill="#000000" font-family="sans-serif" font-size="14" lengthAdjust="spacingAndGlyphs" textLength="17" x="1164.5" y="81.7344">S3</text><text fill="#000000" font-family="sans-serif" font-size="12" lengthAdjust="spacingAndGlyphs" textLength="55" x="1140.5" y="106.2891">이미지, etc</text></g><g id="AWS.MetadataStore"><rect fill="#FEFECE" filter="url(#f1bcledzhq7z0v)" height="50.6211" rx="12.5" ry="12.5" style="stroke: #A80036; stroke-width: 1.5;" width="119" x="981.5" y="63.1992"/><line style="stroke: #A80036; stroke-width: 1.5;" x1="981.5" x2="1100.5" y1="89.6875" y2="89.6875"/><text fill="#000000" font-family="sans-serif" font-size="14" lengthAdjust="spacingAndGlyphs" textLength="99" x="991.5" y="81.7344">MetadataStore</text><text fill="#000000" font-family="sans-serif" font-size="12" lengthAdjust="spacingAndGlyphs" textLength="62" x="986.5" y="106.2891">dynamodb</text></g><g id="사용중지.reply"><rect fill="#FEFECE" filter="url(#f1bcledzhq7z0v)" height="50.6211" rx="12.5" ry="12.5" style="stroke: #A80036; stroke-width: 1.5;" width="54" x="694" y="402.1992"/><line style="stroke: #A80036; stroke-width: 1.5;" x1="694" x2="748" y1="428.6875" y2="428.6875"/><text fill="#000000" font-family="sans-serif" font-size="14" lengthAdjust="spacingAndGlyphs" textLength="34" x="704" y="420.7344">reply</text><text fill="#000000" font-family="sans-serif" font-size="12" lengthAdjust="spacingAndGlyphs" textLength="20" x="699" y="445.2891">덧글</text></g><g id="Administrator.administrator"><rect fill="#FEFECE" filter="url(#f1bcledzhq7z0v)" height="50.6211" rx="12.5" ry="12.5" style="stroke: #A80036; stroke-width: 1.5;" width="113" x="537.5" y="735.1992"/><line style="stroke: #A80036; stroke-width: 1.5;" x1="537.5" x2="650.5" y1="761.6875" y2="761.6875"/><text fill="#000000" font-family="sans-serif" font-size="14" lengthAdjust="spacingAndGlyphs" textLength="93" x="547.5" y="753.7344">administrator</text><text fill="#000000" font-family="sans-serif" font-size="12" lengthAdjust="spacingAndGlyphs" textLength="30" x="542.5" y="778.2891">관리자</text></g><g id="S3_Access.common"><rect fill="#FEFECE" filter="url(#f1bcledzhq7z0v)" height="50.6211" rx="12.5" ry="12.5" style="stroke: #A80036; stroke-width: 1.5;" width="100" x="1011" y="402.1992"/><line style="stroke: #A80036; stroke-width: 1.5;" x1="1011" x2="1111" y1="428.6875" y2="428.6875"/><text fill="#000000" font-family="sans-serif" font-size="14" lengthAdjust="spacingAndGlyphs" textLength="60" x="1031" y="420.7344">common</text><text fill="#000000" font-family="sans-serif" font-size="12" lengthAdjust="spacingAndGlyphs" textLength="80" x="1016" y="445.2891">댓글: 공개된 API</text></g><g id="S3_Access.post"><rect fill="#FEFECE" filter="url(#f1bcledzhq7z0v)" height="50.6211" rx="12.5" ry="12.5" style="stroke: #A80036; stroke-width: 1.5;" width="110" x="1146" y="402.1992"/><line style="stroke: #A80036; stroke-width: 1.5;" x1="1146" x2="1256" y1="428.6875" y2="428.6875"/><text fill="#000000" font-family="sans-serif" font-size="14" lengthAdjust="spacingAndGlyphs" textLength="30" x="1186" y="420.7344">post</text><text fill="#000000" font-family="sans-serif" font-size="12" lengthAdjust="spacingAndGlyphs" textLength="90" x="1151" y="445.2891">글작성: 공개된 API</text></g><g id="authorized.user_post"><rect fill="#FEFECE" filter="url(#f1bcledzhq7z0v)" height="50" rx="12.5" ry="12.5" style="stroke: #A80036; stroke-width: 1.5;" width="87" x="23.5" y="735.6992"/><line style="stroke: #A80036; stroke-width: 1.5;" x1="23.5" x2="110.5" y1="762.1875" y2="762.1875"/><text fill="#000000" font-family="sans-serif" font-size="14" lengthAdjust="spacingAndGlyphs" textLength="67" x="33.5" y="754.2344">user_post</text></g><g id="authorized.user_comment"><rect fill="#FEFECE" filter="url(#f1bcledzhq7z0v)" height="50" rx="12.5" ry="12.5" style="stroke: #A80036; stroke-width: 1.5;" width="121" x="145.5" y="735.6992"/><line style="stroke: #A80036; stroke-width: 1.5;" x1="145.5" x2="266.5" y1="762.1875" y2="762.1875"/><text fill="#000000" font-family="sans-serif" font-size="14" lengthAdjust="spacingAndGlyphs" textLength="101" x="155.5" y="754.2344">user_comment</text></g><g id="authorized.user_report"><rect fill="#FEFECE" filter="url(#f1bcledzhq7z0v)" height="50" rx="12.5" ry="12.5" style="stroke: #A80036; stroke-width: 1.5;" width="100" x="302" y="735.6992"/><line style="stroke: #A80036; stroke-width: 1.5;" x1="302" x2="402" y1="762.1875" y2="762.1875"/><text fill="#000000" font-family="sans-serif" font-size="14" lengthAdjust="spacingAndGlyphs" textLength="80" x="312" y="754.2344">user_report</text></g><g id="authorized.user_list"><rect fill="#FEFECE" filter="url(#f1bcledzhq7z0v)" height="50" rx="12.5" ry="12.5" style="stroke: #A80036; stroke-width: 1.5;" width="77" x="167.5" y="846.6992"/><line style="stroke: #A80036; stroke-width: 1.5;" x1="167.5" x2="244.5" y1="873.1875" y2="873.1875"/><text fill="#000000" font-family="sans-serif" font-size="14" lengthAdjust="spacingAndGlyphs" textLength="57" x="177.5" y="865.2344">user_list</text></g><g id="authorized.user_like"><rect fill="#FEFECE" filter="url(#f1bcledzhq7z0v)" height="50" rx="12.5" ry="12.5" style="stroke: #A80036; stroke-width: 1.5;" width="81" x="38.5" y="846.6992"/><line style="stroke: #A80036; stroke-width: 1.5;" x1="38.5" x2="119.5" y1="873.1875" y2="873.1875"/><text fill="#000000" font-family="sans-serif" font-size="14" lengthAdjust="spacingAndGlyphs" textLength="61" x="48.5" y="865.2344">user_like</text></g><g id="authorized.user_create"><rect fill="#FEFECE" filter="url(#f1bcledzhq7z0v)" height="50" rx="12.5" ry="12.5" style="stroke: #A80036; stroke-width: 1.5;" width="99" x="300.5" y="846.6992"/><line style="stroke: #A80036; stroke-width: 1.5;" x1="300.5" x2="399.5" y1="873.1875" y2="873.1875"/><text fill="#000000" font-family="sans-serif" font-size="14" lengthAdjust="spacingAndGlyphs" textLength="79" x="310.5" y="865.2344">user_create</text></g><g id="EntityFactory"><rect fill="#FEFECE" filter="url(#f1bcledzhq7z0v)" height="50.6211" rx="12.5" ry="12.5" style="stroke: #A80036; stroke-width: 1.5;" width="108" x="838" y="63.1992"/><line style="stroke: #A80036; stroke-width: 1.5;" x1="838" x2="946" y1="89.6875" y2="89.6875"/><text fill="#000000" font-family="sans-serif" font-size="14" lengthAdjust="spacingAndGlyphs" textLength="88" x="848" y="81.7344">EntityFactory</text><text fill="#000000" font-family="sans-serif" font-size="12" lengthAdjust="spacingAndGlyphs" textLength="31" x="843" y="106.2891">entity</text></g><g id="yiguana"><rect fill="#FEFECE" filter="url(#f1bcledzhq7z0v)" height="50.6211" rx="12.5" ry="12.5" style="stroke: #A80036; stroke-width: 1.5;" width="109" x="770.5" y="284.1992"/><line style="stroke: #A80036; stroke-width: 1.5;" x1="770.5" x2="879.5" y1="310.6875" y2="310.6875"/><text fill="#000000" font-family="sans-serif" font-size="14" lengthAdjust="spacingAndGlyphs" textLength="54" x="798" y="302.7344">yiguana</text><text fill="#000000" font-family="sans-serif" font-size="12" lengthAdjust="spacingAndGlyphs" textLength="89" x="775.5" y="327.2891">createYiguana()</text></g><g id="comment"><rect fill="#FEFECE" filter="url(#f1bcledzhq7z0v)" height="50.6211" rx="12.5" ry="12.5" style="stroke: #A80036; stroke-width: 1.5;" width="84" x="783" y="402.1992"/><line style="stroke: #A80036; stroke-width: 1.5;" x1="783" x2="867" y1="428.6875" y2="428.6875"/><text fill="#000000" font-family="sans-serif" font-size="14" lengthAdjust="spacingAndGlyphs" textLength="64" x="793" y="420.7344">comment</text><text fill="#000000" font-family="sans-serif" font-size="12" lengthAdjust="spacingAndGlyphs" textLength="20" x="788" y="445.2891">댓글</text></g><g id="user"><rect fill="#FEFECE" filter="url(#f1bcledzhq7z0v)" height="50.6211" rx="12.5" ry="12.5" style="stroke: #A80036; stroke-width: 1.5;" width="50" x="290" y="402.1992"/><line style="stroke: #A80036; stroke-width: 1.5;" x1="290" x2="340" y1="428.6875" y2="428.6875"/><text fill="#000000" font-family="sans-serif" font-size="14" lengthAdjust="spacingAndGlyphs" textLength="30" x="300" y="420.7344">user</text><text fill="#000000" font-family="sans-serif" font-size="12" lengthAdjust="spacingAndGlyphs" textLength="20" x="295" y="445.2891">유저</text></g><g id="replyReport"><rect fill="#FEFECE" filter="url(#f1bcledzhq7z0v)" height="50.6211" rx="12.5" ry="12.5" style="stroke: #A80036; stroke-width: 1.5;" width="100" x="435" y="846.1992"/><line style="stroke: #A80036; stroke-width: 1.5;" x1="435" x2="535" y1="872.6875" y2="872.6875"/><text fill="#000000" font-family="sans-serif" font-size="14" lengthAdjust="spacingAndGlyphs" textLength="80" x="445" y="864.7344">replyReport</text><text fill="#000000" font-family="sans-serif" font-size="12" lengthAdjust="spacingAndGlyphs" textLength="44" x="440" y="889.2891">신고 처리</text></g><g id="createUploadUrl"><rect fill="#FEFECE" filter="url(#f1bcledzhq7z0v)" height="50.6211" rx="12.5" ry="12.5" style="stroke: #A80036; stroke-width: 1.5;" width="208" x="949" y="513.1992"/><line style="stroke: #A80036; stroke-width: 1.5;" x1="949" x2="1157" y1="539.6875" y2="539.6875"/><text fill="#000000" font-family="sans-serif" font-size="14" lengthAdjust="spacingAndGlyphs" textLength="111" x="997.5" y="531.7344">createUploadUrl</text><text fill="#000000" font-family="sans-serif" font-size="12" lengthAdjust="spacingAndGlyphs" textLength="188" x="954" y="556.2891">(input: CreateUploadUrlApiInput)</text></g><g id="list"><rect fill="#FEFECE" filter="url(#f1bcledzhq7z0v)" height="50.6211" rx="12.5" ry="12.5" style="stroke: #A80036; stroke-width: 1.5;" width="104" x="670" y="1067.1992"/><line style="stroke: #A80036; stroke-width: 1.5;" x1="670" x2="774" y1="1093.6875" y2="1093.6875"/><text fill="#000000" font-family="sans-serif" font-size="14" lengthAdjust="spacingAndGlyphs" textLength="20" x="712" y="1085.7344">list</text><text fill="#000000" font-family="sans-serif" font-size="12" lengthAdjust="spacingAndGlyphs" textLength="84" x="675" y="1110.2891">리스트를 가져온다</text></g><g id="create"><rect fill="#FEFECE" filter="url(#f1bcledzhq7z0v)" height="50.6211" rx="12.5" ry="12.5" style="stroke: #A80036; stroke-width: 1.5;" width="62" x="1153" y="624.1992"/><line style="stroke: #A80036; stroke-width: 1.5;" x1="1153" x2="1215" y1="650.6875" y2="650.6875"/><text fill="#000000" font-family="sans-serif" font-size="14" lengthAdjust="spacingAndGlyphs" textLength="42" x="1163" y="642.7344">create</text><text fill="#000000" font-family="sans-serif" font-size="12" lengthAdjust="spacingAndGlyphs" textLength="20" x="1158" y="667.2891">생성</text></g><g id="read"><rect fill="#FEFECE" filter="url(#f1bcledzhq7z0v)" height="50.6211" rx="12.5" ry="12.5" style="stroke: #A80036; stroke-width: 1.5;" width="51" x="653.5" y="624.1992"/><line style="stroke: #A80036; stroke-width: 1.5;" x1="653.5" x2="704.5" y1="650.6875" y2="650.6875"/><text fill="#000000" font-family="sans-serif" font-size="14" lengthAdjust="spacingAndGlyphs" textLength="31" x="663.5" y="642.7344">read</text><text fill="#000000" font-family="sans-serif" font-size="12" lengthAdjust="spacingAndGlyphs" textLength="20" x="658.5" y="667.2891">읽기</text></g><g id="del"><rect fill="#FEFECE" filter="url(#f1bcledzhq7z0v)" height="50.6211" rx="12.5" ry="12.5" style="stroke: #A80036; stroke-width: 1.5;" width="50" x="900" y="624.1992"/><line style="stroke: #A80036; stroke-width: 1.5;" x1="900" x2="950" y1="650.6875" y2="650.6875"/><text fill="#000000" font-family="sans-serif" font-size="14" lengthAdjust="spacingAndGlyphs" textLength="21" x="914.5" y="642.7344">del</text><text fill="#000000" font-family="sans-serif" font-size="12" lengthAdjust="spacingAndGlyphs" textLength="20" x="905" y="667.2891">삭제</text></g><g id="view"><rect fill="#FEFECE" filter="url(#f1bcledzhq7z0v)" height="50.6211" rx="12.5" ry="12.5" style="stroke: #A80036; stroke-width: 1.5;" width="50" x="1405" y="624.1992"/><line style="stroke: #A80036; stroke-width: 1.5;" x1="1405" x2="1455" y1="650.6875" y2="650.6875"/><text fill="#000000" font-family="sans-serif" font-size="14" lengthAdjust="spacingAndGlyphs" textLength="30" x="1415" y="642.7344">view</text><text fill="#000000" font-family="sans-serif" font-size="12" lengthAdjust="spacingAndGlyphs" textLength="20" x="1410" y="667.2891">읽기</text></g><g id="get"><rect fill="#FEFECE" filter="url(#f1bcledzhq7z0v)" height="50.6211" rx="12.5" ry="12.5" style="stroke: #A80036; stroke-width: 1.5;" width="64" x="368" y="513.1992"/><line style="stroke: #A80036; stroke-width: 1.5;" x1="368" x2="432" y1="539.6875" y2="539.6875"/><text fill="#000000" font-family="sans-serif" font-size="14" lengthAdjust="spacingAndGlyphs" textLength="22" x="389" y="531.7344">get</text><text fill="#000000" font-family="sans-serif" font-size="12" lengthAdjust="spacingAndGlyphs" textLength="44" x="373" y="556.2891">가져온다.</text></g><g id="유저"><rect fill="#FEFECE" filter="url(#f1bcledzhq7z0v)" height="50" rx="12.5" ry="12.5" style="stroke: #A80036; stroke-width: 1.5;" width="50" x="944" y="174.1992"/><line style="stroke: #A80036; stroke-width: 1.5;" x1="944" x2="994" y1="200.6875" y2="200.6875"/><text fill="#000000" font-family="sans-serif" font-size="14" lengthAdjust="spacingAndGlyphs" textLength="24" x="957" y="192.7344">유저</text></g><g id="aggReport"><rect fill="#FEFECE" filter="url(#f1bcledzhq7z0v)" height="50" rx="12.5" ry="12.5" style="stroke: #A80036; stroke-width: 1.5;" width="92" x="457" y="957.1992"/><line style="stroke: #A80036; stroke-width: 1.5;" x1="457" x2="549" y1="983.6875" y2="983.6875"/><text fill="#000000" font-family="sans-serif" font-size="14" lengthAdjust="spacingAndGlyphs" textLength="72" x="467" y="975.7344">aggReport</text></g><g id="report"><rect fill="#FEFECE" filter="url(#f1bcledzhq7z0v)" height="50" rx="12.5" ry="12.5" style="stroke: #A80036; stroke-width: 1.5;" width="63" x="641.5" y="846.6992"/><line style="stroke: #A80036; stroke-width: 1.5;" x1="641.5" x2="704.5" y1="873.1875" y2="873.1875"/><text fill="#000000" font-family="sans-serif" font-size="14" lengthAdjust="spacingAndGlyphs" textLength="43" x="651.5" y="865.2344">report</text></g><g id="all"><rect fill="#FEFECE" filter="url(#f1bcledzhq7z0v)" height="50" rx="12.5" ry="12.5" style="stroke: #A80036; stroke-width: 1.5;" width="50" x="584" y="957.1992"/><line style="stroke: #A80036; stroke-width: 1.5;" x1="584" x2="634" y1="983.6875" y2="983.6875"/><text fill="#000000" font-family="sans-serif" font-size="14" lengthAdjust="spacingAndGlyphs" textLength="16" x="601" y="975.7344">all</text></g><!--MD5=[ab249b397e11a1a8f1400ed430639bba]
link MetadataStore to 유저--><path d="M1024.66,114.3192 C1013.72,130.8092 999.29,152.5592 987.86,169.7792 " fill="none" id="MetadataStore-&gt;유저" style="stroke: #A80036; stroke-width: 1.0;"/><polygon fill="#A80036" points="985.03,174.0492,993.3296,168.7466,987.787,169.878,986.6556,164.3354,985.03,174.0492" style="stroke: #A80036; stroke-width: 1.0;"/><!--MD5=[3652586b4b7f96dcac7f19f5a736e60e]
link EntityFactory to 유저--><path d="M909.47,114.3192 C921.17,130.8092 936.61,152.5592 948.83,169.7792 " fill="none" id="EntityFactory-&gt;유저" style="stroke: #A80036; stroke-width: 1.0;"/><polygon fill="#A80036" points="951.86,174.0492,949.9126,164.3948,948.966,169.9719,943.3889,169.0253,951.86,174.0492" style="stroke: #A80036; stroke-width: 1.0;"/><!--MD5=[064ca8a8d6d9a5417d45ec4457c718ac]
link S3 to 유저--><path d="M1148.69,114.3292 C1139.6,122.6492 1128.84,131.5192 1118,138.1992 C1079.59,161.8992 1030.19,179.6092 999.05,189.4392 " fill="none" id="S3-&gt;유저" style="stroke: #A80036; stroke-width: 1.0;"/><polygon fill="#A80036" points="994.22,190.9492,1004.0023,192.0927,998.9939,189.4627,1001.6239,184.4544,994.22,190.9492" style="stroke: #A80036; stroke-width: 1.0;"/><!--MD5=[63ccee210d17cb7caf6a50e58e2a7a37]
reverse link S3 to S3_Access--><path d="M1186.13,119.0892 C1206.63,165.8092 1246.52,260.2392 1272,343.1992 C1273.3538,347.6055 1274.6583,352.1691 1275.9057,356.7873 C1276.0616,357.3645 1276.2166,357.9427 1276.3707,358.5215 C1276.4093,358.6661 1276.4477,358.8109 1276.4862,358.9557 " fill="none" id="S3&lt;-S3_Access" style="stroke: #A80036; stroke-width: 1.0;"/><polygon fill="#A80036" points="1184.09,114.4492,1184.0472,124.298,1186.1008,119.0271,1191.3718,121.0807,1184.09,114.4492" style="stroke: #A80036; stroke-width: 1.0;"/><!--MD5=[0e0518b64889a9fd080bc6937d4489cc]
link 유저 to yiguana--><path d="M943.92,219.0992 C921.2,236.2192 887.45,261.6492 861.7,281.0492 " fill="none" id="유저-&gt;yiguana" style="stroke: #A80036; stroke-width: 1.0;"/><polygon fill="#A80036" points="857.64,284.1092,867.24,281.9092,861.64,281.1092,862.44,275.5092,857.64,284.1092" style="stroke: #A80036; stroke-width: 1.0;"/><!--MD5=[e4cdf41d05eaee34c94043c15d2884e6]
link yiguana to common--><path d="M875.05,335.2992 C913.54,354.2192 966.65,380.3192 1006.26,399.7892 " fill="none" id="yiguana-&gt;common" style="stroke: #A80036; stroke-width: 1.0;"/><polygon fill="#A80036" points="1011.02,402.1292,1004.7203,394.5587,1006.5365,399.916,1001.1791,401.7323,1011.02,402.1292" style="stroke: #A80036; stroke-width: 1.0;"/><!--MD5=[3e07eedba33976a2dfae5188cd1a3c18]
link yiguana to post--><path d="M879.54,311.7692 C955.06,314.0392 1086.93,321.1392 1129,343.1992 C1152.48,355.5092 1171.63,378.9492 1184.27,397.8592 " fill="none" id="yiguana-&gt;post" style="stroke: #A80036; stroke-width: 1.0;"/><polygon fill="#A80036" points="1187.02,402.0692,1185.4328,392.3491,1184.2795,397.8871,1178.7415,396.7339,1187.02,402.0692" style="stroke: #A80036; stroke-width: 1.0;"/><!--MD5=[fc8f5a36f3bd3d7a4e06e515d980175e]
link yiguana to comment--><path d="M825,335.2992 C825,353.2892 825,377.7892 825,396.8992 " fill="none" id="yiguana-&gt;comment" style="stroke: #A80036; stroke-width: 1.0;"/><polygon fill="#A80036" points="825,402.1292,829,393.1292,825,397.1292,821,393.1292,825,402.1292" style="stroke: #A80036; stroke-width: 1.0;"/><!--MD5=[ef7cd522d7e449d906e67819c3b05d86]
link yiguana to reply--><path d="M775.16,335.2592 C771.89,337.7292 768.8,340.3792 766,343.1992 C750.85,358.4892 739.44,379.9392 731.9,397.2592 " fill="none" id="yiguana-&gt;reply" style="stroke: #A80036; stroke-width: 1.0;"/><polygon fill="#A80036" points="729.87,402.0292,737.0565,395.2947,731.8154,397.4232,729.6869,392.1821,729.87,402.0292" style="stroke: #A80036; stroke-width: 1.0;"/><!--MD5=[1b372dfe786bb013bda26cc06f3bd8d3]
link yiguana to user--><path d="M770.48,314.6892 C718.69,319.1792 638.88,327.9292 571,343.1992 C487.44,361.9992 392.37,396.6592 345.06,414.8492 " fill="none" id="yiguana-&gt;user" style="stroke: #A80036; stroke-width: 1.0;"/><polygon fill="#A80036" points="340.35,416.6592,350.1868,417.1456,345.0138,414.8567,347.3027,409.6836,340.35,416.6592" style="stroke: #A80036; stroke-width: 1.0;"/><!--MD5=[013cad4372b990f2aeee95d614549c46]
link yiguana to administrator--><path d="M770.47,316.5192 C734.19,321.5292 690.91,330.0492 678,343.1992 C571.9,451.2892 581.96,653.9092 590.1,729.8992 " fill="none" id="yiguana-&gt;administrator" style="stroke: #A80036; stroke-width: 1.0;"/><polygon fill="#A80036" points="590.68,735.1492,593.6528,725.7597,590.1231,730.1803,585.7025,726.6507,590.68,735.1492" style="stroke: #A80036; stroke-width: 1.0;"/><!--MD5=[3d397ba097e6e544f1001a4c0e87f621]
link common to createUploadUrl--><path d="M1059.18,453.4292 C1058,469.5992 1056.44,490.8092 1055.19,507.8992 " fill="none" id="common-&gt;createUploadUrl" style="stroke: #A80036; stroke-width: 1.0;"/><polygon fill="#A80036" points="1054.81,513.0592,1059.4676,504.3813,1055.1815,508.073,1051.4897,503.7869,1054.81,513.0592" style="stroke: #A80036; stroke-width: 1.0;"/><!--MD5=[2b9a981aa259f5f28acbcf29105938f7]
link post to list--><path d="M1223.28,453.2492 C1265.28,500.5892 1352,603.7592 1352,648.6992 C1352,648.6992 1352,648.6992 1352,872.6992 C1352,993.4092 934.16,1062.7592 779.05,1084.3392 " fill="none" id="post-&gt;list" style="stroke: #A80036; stroke-width: 1.0;"/><polygon fill="#A80036" points="774.09,1085.0292,783.5532,1087.7583,779.0428,1084.3441,782.457,1079.8337,774.09,1085.0292" style="stroke: #A80036; stroke-width: 1.0;"/><!--MD5=[79c4b524607c58bc91f4bbc6492d7ddb]
link post to create--><path d="M1215.26,453.2692 C1229.22,480.4892 1246.92,525.6292 1236,564.1992 C1230.3,584.3492 1218.28,604.4192 1207.24,619.9392 " fill="none" id="post-&gt;create" style="stroke: #A80036; stroke-width: 1.0;"/><polygon fill="#A80036" points="1204.16,624.1892,1212.6709,619.2329,1207.0864,620.1351,1206.1842,614.5506,1204.16,624.1892" style="stroke: #A80036; stroke-width: 1.0;"/><!--MD5=[adbad715128e8a0a5cb8287d00d0084c]
link post to del--><path d="M1203.21,453.3892 C1204.48,483.2392 1201.92,533.3292 1175,564.1992 C1117.94,629.6292 1008.38,644.4892 955.3,647.7992 " fill="none" id="post-&gt;del" style="stroke: #A80036; stroke-width: 1.0;"/><polygon fill="#A80036" points="950.03,648.0992,959.2441,651.5778,955.0218,647.8132,958.7864,643.5909,950.03,648.0992" style="stroke: #A80036; stroke-width: 1.0;"/><!--MD5=[d93ebe0da4f899e6613b9b97cc82ca54]
link post to view--><path d="M1217.22,453.3292 C1227.73,467.2792 1242.68,483.7592 1260,493.1992 C1306.71,518.6492 1336.84,479.4992 1378,513.1992 C1409.97,539.3792 1422.32,587.6292 1427.07,618.9292 " fill="none" id="post-&gt;view" style="stroke: #A80036; stroke-width: 1.0;"/><polygon fill="#A80036" points="1427.82,624.1792,1430.5185,614.7073,1427.1189,619.2286,1422.5975,615.829,1427.82,624.1792" style="stroke: #A80036; stroke-width: 1.0;"/><!--MD5=[77a56133c26edf4b88a1bf9b5c3a0266]
link comment to list--><path d="M816.51,453.2692 C798.49,507.7292 758,643.0192 758,759.6992 C758,759.6992 758,759.6992 758,872.6992 C758,941.1992 740.64,1020.1692 730.03,1062.0392 " fill="none" id="comment-&gt;list" style="stroke: #A80036; stroke-width: 1.0;"/><polygon fill="#A80036" points="728.77,1066.9592,734.8817,1059.236,730.0129,1062.1162,727.1328,1057.2474,728.77,1066.9592" style="stroke: #A80036; stroke-width: 1.0;"/><!--MD5=[8f75d0154d12a66e57a0e5623e3aec4d]
link comment to create--><path d="M838.38,453.3092 C856.02,483.5692 889.83,534.5392 932,564.1992 C999.51,611.6792 1095.69,634.0592 1147.53,643.2392 " fill="none" id="comment-&gt;create" style="stroke: #A80036; stroke-width: 1.0;"/><polygon fill="#A80036" points="1152.71,644.1392,1144.5285,638.6563,1147.7839,643.2825,1143.1577,646.538,1152.71,644.1392" style="stroke: #A80036; stroke-width: 1.0;"/><!--MD5=[7ae63d3911bed20b8aa01a6f0a6e8d78]
link comment to read--><path d="M804.84,453.4192 C793.64,466.2292 778.97,481.5692 764,493.1992 C749.54,504.4192 739.87,499.2592 728,513.1992 C701.94,543.8092 689.29,589.3792 683.48,619.0692 " fill="none" id="comment-&gt;read" style="stroke: #A80036; stroke-width: 1.0;"/><polygon fill="#A80036" points="682.54,624.0592,688.1415,615.9584,683.4683,619.1462,680.2806,614.473,682.54,624.0592" style="stroke: #A80036; stroke-width: 1.0;"/><!--MD5=[266027693d031a0bc6b2119320c38764]
link comment to del--><path d="M831.15,453.4192 C838.53,481.1592 852.15,527.1292 870,564.1992 C879.37,583.6592 892.49,603.9892 903.56,619.8392 " fill="none" id="comment-&gt;del" style="stroke: #A80036; stroke-width: 1.0;"/><polygon fill="#A80036" points="906.63,624.1792,904.7276,614.5158,903.755,620.0884,898.1824,619.1158,906.63,624.1792" style="stroke: #A80036; stroke-width: 1.0;"/><!--MD5=[61fee248f8f79c93a7a56ed2d7e7e1e8]
link user to get--><path d="M334.29,453.4292 C347.11,469.8792 364,491.5392 377.45,508.7792 " fill="none" id="user-&gt;get" style="stroke: #A80036; stroke-width: 1.0;"/><polygon fill="#A80036" points="380.79,513.0592,378.4148,503.5011,377.7173,509.1148,372.1036,508.4173,380.79,513.0592" style="stroke: #A80036; stroke-width: 1.0;"/><!--MD5=[6456245570d3d26685b35921083ea12a]
link administrator to replyReport--><path d="M569.27,786.4292 C552.68,803.0192 530.79,824.9092 513.48,842.2192 " fill="none" id="administrator-&gt;replyReport" style="stroke: #A80036; stroke-width: 1.0;"/><polygon fill="#A80036" points="509.64,846.0592,518.8324,842.5237,513.1755,842.5237,513.1755,836.8668,509.64,846.0592" style="stroke: #A80036; stroke-width: 1.0;"/><!--MD5=[99c26548b98b04b998edb9b651a2af04]
link administrator to aggReport--><path d="M590.79,786.2792 C585.87,818.5292 574.54,876.2692 552,920.6992 C546.22,932.0892 538.03,943.3192 530,952.9492 " fill="none" id="administrator-&gt;aggReport" style="stroke: #A80036; stroke-width: 1.0;"/><polygon fill="#A80036" points="526.57,956.9692,535.4471,952.7033,529.8087,953.1599,529.3521,947.5215,526.57,956.9692" style="stroke: #A80036; stroke-width: 1.0;"/><!--MD5=[832d4606ce5a8c659269b988af649463]
link administrator to report--><path d="M611.93,786.4292 C623.93,802.9892 639.77,824.8392 652.3,842.1492 " fill="none" id="administrator-&gt;report" style="stroke: #A80036; stroke-width: 1.0;"/><polygon fill="#A80036" points="655.42,846.4392,653.3574,836.8088,652.4774,842.3968,646.8894,841.5169,655.42,846.4392" style="stroke: #A80036; stroke-width: 1.0;"/><!--MD5=[43f0d8e741bc3571d1c4cbdb53d01c25]
link aggReport to list--><path d="M549.18,1006.0792 C583.77,1023.2092 631.2,1046.7092 667.62,1064.7592 " fill="none" id="aggReport-&gt;list" style="stroke: #A80036; stroke-width: 1.0;"/><polygon fill="#A80036" points="672.46,1067.1592,666.1893,1059.5646,667.985,1064.9289,662.6207,1066.7246,672.46,1067.1592" style="stroke: #A80036; stroke-width: 1.0;"/><!--MD5=[3c8874494304844405aadcc97f38bbab]
link report to all--><path d="M658.8,896.7792 C649.02,913.3592 635.99,935.4392 625.71,952.8592 " fill="none" id="report-&gt;all" style="stroke: #A80036; stroke-width: 1.0;"/><polygon fill="#A80036" points="623.16,957.1892,631.1842,951.4785,625.7051,952.8854,624.2981,947.4063,623.16,957.1892" style="stroke: #A80036; stroke-width: 1.0;"/><!--MD5=[8761f662733ef6b2b18350599094016b]
link report to list--><path d="M678.43,896.9692 C687.48,937.3992 705.6,1018.3892 715.38,1062.0992 " fill="none" id="report-&gt;list" style="stroke: #A80036; stroke-width: 1.0;"/><polygon fill="#A80036" points="716.47,1066.9792,718.4224,1057.3258,715.3853,1062.0983,710.6129,1059.0613,716.47,1066.9792" style="stroke: #A80036; stroke-width: 1.0;"/><!--MD5=[3e25e59008e1774e41d2f79b6f352811]
link user to user_post--><path d="M296.56,453.3092 C251.53,513.4192 136.12,667.4492 88.27,731.2992 " fill="none" id="user-&gt;user_post" style="stroke: #A80036; stroke-width: 1.0;"/><polygon fill="#A80036" points="85.22,735.3792,93.82,730.5792,88.22,731.3792,87.42,725.7792,85.22,735.3792" style="stroke: #A80036; stroke-width: 1.0;"/><!--MD5=[b33d5d904d0fdb075d5acdb0a57b9694]
link user to user_comment--><path d="M306.9,453.3092 C287.18,513.1792 236.78,666.2192 215.6,730.5392 " fill="none" id="user-&gt;user_comment" style="stroke: #A80036; stroke-width: 1.0;"/><polygon fill="#A80036" points="214.01,735.3792,220.6311,728.088,215.5783,730.6315,213.0348,725.5788,214.01,735.3792" style="stroke: #A80036; stroke-width: 1.0;"/><!--MD5=[db72964f54985091631b50b61b7a52b9]
link user to user_report--><path d="M317.75,453.3092 C324.43,513.0592 341.48,665.6092 348.7,730.1492 " fill="none" id="user-&gt;user_report" style="stroke: #A80036; stroke-width: 1.0;"/><polygon fill="#A80036" points="349.28,735.3792,352.2765,725.9973,348.7357,730.4089,344.324,726.8681,349.28,735.3792" style="stroke: #A80036; stroke-width: 1.0;"/><!--MD5=[536b065770a4e192ae26ca9f71480a4c]
link user_post to user_list--><path d="M97.04,785.6992 C106.88,793.5392 117.89,802.2592 128,810.1992 C141.92,821.1392 157.31,833.0992 170.72,843.4792 " fill="none" id="user_post-&gt;user_list" style="stroke: #A80036; stroke-width: 1.0;"/><polygon fill="#A80036" points="174.81,846.6392,170.1529,837.961,170.8602,843.5735,165.2477,844.2807,174.81,846.6392" style="stroke: #A80036; stroke-width: 1.0;"/><!--MD5=[14859eeae45dfc26190a792aae91034f]
link user_post to user_like--><path d="M69.66,785.8892 C71.47,802.2592 73.86,823.9792 75.77,841.3392 " fill="none" id="user_post-&gt;user_like" style="stroke: #A80036; stroke-width: 1.0;"/><polygon fill="#A80036" points="76.34,846.5792,79.3394,837.1982,75.7972,841.6088,71.3867,838.0666,76.34,846.5792" style="stroke: #A80036; stroke-width: 1.0;"/><!--MD5=[7a81ffd54dbbddcb896dd3202d4c4aa9]
link user_comment to user_list--><path d="M206,785.8892 C206,802.2592 206,823.9792 206,841.3392 " fill="none" id="user_comment-&gt;user_list" style="stroke: #A80036; stroke-width: 1.0;"/><polygon fill="#A80036" points="206,846.5792,210,837.5792,206,841.5792,202,837.5792,206,846.5792" style="stroke: #A80036; stroke-width: 1.0;"/><!--MD5=[87aa53ae488a6d7eb5ba0b87e16c167e]
link user_comment to user_like--><path d="M177.81,785.8892 C158.08,802.8192 131.68,825.4792 111.13,843.1192 " fill="none" id="user_comment-&gt;user_like" style="stroke: #A80036; stroke-width: 1.0;"/><polygon fill="#A80036" points="107.11,846.5792,116.5465,843.7591,110.9063,843.3253,111.3401,837.6851,107.11,846.5792" style="stroke: #A80036; stroke-width: 1.0;"/><!--MD5=[2704796daa000232b37bb78dd5e34a14]
link user_report to user_create--><path d="M351.56,785.8892 C351.26,802.2592 350.86,823.9792 350.54,841.3392 " fill="none" id="user_report-&gt;user_create" style="stroke: #A80036; stroke-width: 1.0;"/><polygon fill="#A80036" points="350.44,846.5792,354.5937,837.6491,350.5257,841.58,346.5949,837.512,350.44,846.5792" style="stroke: #A80036; stroke-width: 1.0;"/><!--MD5=[25257610bdb35e888fc6ffbff0b9fe59]
link user_report to user_list--><path d="M319.6,785.8892 C296.73,802.9692 266.06,825.8592 242.35,843.5592 " fill="none" id="user_report-&gt;user_list" style="stroke: #A80036; stroke-width: 1.0;"/><polygon fill="#A80036" points="238.31,846.5792,247.9137,844.3956,242.3151,843.5861,243.1247,837.9874,238.31,846.5792" style="stroke: #A80036; stroke-width: 1.0;"/><!--MD5=[4d73fb7c25b4ba9bbebdf601b874d910]
@startuml
title SDK

top to bottom direction

EntityFactory: entity

state AWS {
    S3: 이미지, etc
    MetadataStore: dynamodb
}

yiguana: createYiguana()
comment: 댓글
state 사용중지 {
    reply: 덧글
}
user: 유저
state Administrator {
    administrator: 관리자
}
state S3_Access {
    common: 댓글: 공개된 API
    post: 글작성: 공개된 API
}
replyReport: 신고 처리

createUploadUrl: (input: CreateUploadUrlApiInput)

list: 리스트를 가져온다
create: 생성
read: 읽기
del: 삭제
view: 읽기
get: 가져온다.

MetadataStore -down-> 유저
EntityFactory -down-> 유저
S3 -down-> 유저
S3_Access - - -up-> S3
유저 - -> yiguana
yiguana - -> common
yiguana - -> post
yiguana - -> comment
yiguana - -> reply
yiguana - -> user
yiguana - - - - -> administrator

common - -> createUploadUrl

post - - -> list
post - - -> create
post - - -> del
post - - -> view
comment - - -> list
comment - - -> create
comment - - -> read
comment - - -> del

user - -> get
administrator - -> replyReport
administrator - -> aggReport
administrator - -> report

aggReport - -> list
report - -> all
report - - -> list

state authorized {
    user - - - -> user_post
    user - - - -> user_comment
    user - - - -> user_report

    user_post - -> user_list
    user_post - -> user_like
    user_comment - -> user_list
    user_comment - -> user_like
    user_report - -> user_create
    user_report - -> user_list
}

@enduml

PlantUML version 1.2020.15(Sun Jun 28 20:39:45 KST 2020)
(GPL source distribution)
Java Runtime: OpenJDK Runtime Environment
JVM: OpenJDK 64-Bit Server VM
Default Encoding: UTF-8
Language: ko
Country: KR
--></g></svg>