<?xml version="1.0" encoding="UTF-8" standalone="no"?><svg xmlns="http://www.w3.org/2000/svg" xmlns:xlink="http://www.w3.org/1999/xlink" contentScriptType="application/ecmascript" contentStyleType="text/css" height="424px" preserveAspectRatio="none" style="width:589px;height:424px;" version="1.1" viewBox="0 0 589 424" width="589px" zoomAndPan="magnify"><defs><filter height="300%" id="fffrkoolagmfy" width="300%" x="-1" y="-1"><feGaussianBlur result="blurOut" stdDeviation="2.0"/><feColorMatrix in="blurOut" result="blurOut2" type="matrix" values="0 0 0 0 0 0 0 0 0 0 0 0 0 0 0 0 0 0 .4 0"/><feOffset dx="4.0" dy="4.0" in="blurOut2" result="blurOut3"/><feBlend in="SourceGraphic" in2="blurOut3" mode="normal"/></filter></defs><g><text fill="#000000" font-family="sans-serif" font-size="18" lengthAdjust="spacingAndGlyphs" textLength="65" x="258.5" y="27.4023">API 흐름</text><line style="stroke: #A80036; stroke-width: 1.0; stroke-dasharray: 5.0,5.0;" x1="243" x2="243" y1="73.6875" y2="376.4824"/><line style="stroke: #A80036; stroke-width: 1.0; stroke-dasharray: 5.0,5.0;" x1="424" x2="424" y1="73.6875" y2="376.4824"/><line style="stroke: #A80036; stroke-width: 1.0; stroke-dasharray: 5.0,5.0;" x1="547" x2="547" y1="73.6875" y2="376.4824"/><rect fill="#FEFECE" filter="url(#fffrkoolagmfy)" height="30.4883" style="stroke: #A80036; stroke-width: 1.5;" width="51" x="216" y="38.1992"/><text fill="#000000" font-family="sans-serif" font-size="14" lengthAdjust="spacingAndGlyphs" textLength="37" x="223" y="58.7344">client</text><rect fill="#FEFECE" filter="url(#fffrkoolagmfy)" height="30.4883" style="stroke: #A80036; stroke-width: 1.5;" width="51" x="216" y="375.4824"/><text fill="#000000" font-family="sans-serif" font-size="14" lengthAdjust="spacingAndGlyphs" textLength="37" x="223" y="396.0176">client</text><rect fill="#FEFECE" filter="url(#fffrkoolagmfy)" height="30.4883" style="stroke: #A80036; stroke-width: 1.5;" width="35" x="405" y="38.1992"/><text fill="#000000" font-family="sans-serif" font-size="14" lengthAdjust="spacingAndGlyphs" textLength="21" x="412" y="58.7344">api</text><rect fill="#FEFECE" filter="url(#fffrkoolagmfy)" height="30.4883" style="stroke: #A80036; stroke-width: 1.5;" width="35" x="405" y="375.4824"/><text fill="#000000" font-family="sans-serif" font-size="14" lengthAdjust="spacingAndGlyphs" textLength="21" x="412" y="396.0176">api</text><rect fill="#FEFECE" filter="url(#fffrkoolagmfy)" height="30.4883" style="stroke: #A80036; stroke-width: 1.5;" width="49" x="521" y="38.1992"/><text fill="#000000" font-family="sans-serif" font-size="14" lengthAdjust="spacingAndGlyphs" textLength="35" x="528" y="58.7344">store</text><rect fill="#FEFECE" filter="url(#fffrkoolagmfy)" height="30.4883" style="stroke: #A80036; stroke-width: 1.5;" width="49" x="521" y="375.4824"/><text fill="#000000" font-family="sans-serif" font-size="14" lengthAdjust="spacingAndGlyphs" textLength="35" x="528" y="396.0176">store</text><line style="stroke: #A80036; stroke-width: 1.0;" x1="243.5" x2="285.5" y1="104.998" y2="104.998"/><line style="stroke: #A80036; stroke-width: 1.0;" x1="285.5" x2="285.5" y1="104.998" y2="117.998"/><line style="stroke: #A80036; stroke-width: 1.0;" x1="244.5" x2="285.5" y1="117.998" y2="117.998"/><polygon fill="#A80036" points="254.5,113.998,244.5,117.998,254.5,121.998,250.5,117.998" style="stroke: #A80036; stroke-width: 1.0;"/><text fill="#000000" font-family="sans-serif" font-size="13" lengthAdjust="spacingAndGlyphs" textLength="70" x="250.5" y="100.2559">이구아나 생성</text><path d="M8,130.998 L8,155.998 L235,155.998 L235,140.998 L225,130.998 L8,130.998 " fill="#FBFB77" filter="url(#fffrkoolagmfy)" style="stroke: #A80036; stroke-width: 1.0;"/><path d="M225,130.998 L225,140.998 L235,140.998 L225,130.998 " fill="#FBFB77" style="stroke: #A80036; stroke-width: 1.0;"/><text fill="#000000" font-family="sans-serif" font-size="13" lengthAdjust="spacingAndGlyphs" textLength="206" x="14" y="148.5664">const yiguana = createYiguana();</text><polygon fill="#A80036" points="412.5,182.6191,422.5,186.6191,412.5,190.6191,416.5,186.6191" style="stroke: #A80036; stroke-width: 1.0;"/><line style="stroke: #A80036; stroke-width: 1.0;" x1="243.5" x2="418.5" y1="186.6191" y2="186.6191"/><text fill="#000000" font-family="sans-serif" font-size="13" lengthAdjust="spacingAndGlyphs" textLength="70" x="250.5" y="181.877">{data, user}</text><path d="M222,199.6191 L222,239.6191 L445,239.6191 L445,209.6191 L435,199.6191 L222,199.6191 " fill="#FBFB77" filter="url(#fffrkoolagmfy)" style="stroke: #A80036; stroke-width: 1.0;"/><path d="M435,199.6191 L435,209.6191 L445,209.6191 L435,199.6191 " fill="#FBFB77" style="stroke: #A80036; stroke-width: 1.0;"/><text fill="#000000" font-family="sans-serif" font-size="13" lengthAdjust="spacingAndGlyphs" textLength="147" x="248" y="217.1875">data? 처리를 위해 사용된다.</text><text fill="#000000" font-family="sans-serif" font-size="13" lengthAdjust="spacingAndGlyphs" textLength="158" x="248" y="232.498">user? 퍼미션 처리에 사용된다.</text><polygon fill="#A80036" points="254.5,266.5508,244.5,270.5508,254.5,274.5508,250.5,270.5508" style="stroke: #A80036; stroke-width: 1.0;"/><line style="stroke: #A80036; stroke-width: 1.0; stroke-dasharray: 2.0,2.0;" x1="248.5" x2="423.5" y1="270.5508" y2="270.5508"/><text fill="#000000" font-family="sans-serif" font-size="13" lengthAdjust="spacingAndGlyphs" textLength="157" x="260.5" y="265.8086">throw if permission error</text><polygon fill="#A80036" points="535.5,295.8613,545.5,299.8613,535.5,303.8613,539.5,299.8613" style="stroke: #A80036; stroke-width: 1.0;"/><line style="stroke: #A80036; stroke-width: 1.0;" x1="424.5" x2="541.5" y1="299.8613" y2="299.8613"/><text fill="#000000" font-family="sans-serif" font-size="13" lengthAdjust="spacingAndGlyphs" textLength="99" x="431.5" y="295.1191">{...data, ...user?}</text><polygon fill="#A80036" points="254.5,325.1719,244.5,329.1719,254.5,333.1719,250.5,329.1719" style="stroke: #A80036; stroke-width: 1.0;"/><line style="stroke: #A80036; stroke-width: 1.0; stroke-dasharray: 2.0,2.0;" x1="248.5" x2="423.5" y1="329.1719" y2="329.1719"/><text fill="#000000" font-family="sans-serif" font-size="13" lengthAdjust="spacingAndGlyphs" textLength="83" x="260.5" y="324.4297">throw if error</text><polygon fill="#A80036" points="254.5,354.4824,244.5,358.4824,254.5,362.4824,250.5,358.4824" style="stroke: #A80036; stroke-width: 1.0;"/><line style="stroke: #A80036; stroke-width: 1.0;" x1="248.5" x2="423.5" y1="358.4824" y2="358.4824"/><text fill="#000000" font-family="sans-serif" font-size="13" lengthAdjust="spacingAndGlyphs" textLength="36" x="260.5" y="353.7402">result</text><!--MD5=[c2a9a8596352f8059f5146f6d9cf3454]
@startuml
title API 흐름

client -> client: 이구아나 생성
note left client: const yiguana = createYiguana();
client -> api: {data, user}
note over client, api : data? 처리를 위해 사용된다.\nuser? 퍼미션 처리에 사용된다.
client <- - api: throw if permission error
api -> store: {...data, ...user?}
client <- - api: throw if error
client <- api: result
@enduml

PlantUML version 1.2020.15(Sun Jun 28 20:39:45 KST 2020)
(GPL source distribution)
Java Runtime: OpenJDK Runtime Environment
JVM: OpenJDK 64-Bit Server VM
Default Encoding: UTF-8
Language: ko
Country: KR
--></g></svg>