<?xml version="1.0" encoding="UTF-8" standalone="no"?><svg xmlns="http://www.w3.org/2000/svg" xmlns:xlink="http://www.w3.org/1999/xlink" contentScriptType="application/ecmascript" contentStyleType="text/css" height="308px" preserveAspectRatio="none" style="width:386px;height:308px;" version="1.1" viewBox="0 0 386 308" width="386px" zoomAndPan="magnify"><defs><filter height="300%" id="f148zvm8qjj4a1" width="300%" x="-1" y="-1"><feGaussianBlur result="blurOut" stdDeviation="2.0"/><feColorMatrix in="blurOut" result="blurOut2" type="matrix" values="0 0 0 0 0 0 0 0 0 0 0 0 0 0 0 0 0 0 .4 0"/><feOffset dx="4.0" dy="4.0" in="blurOut2" result="blurOut3"/><feBlend in="SourceGraphic" in2="blurOut3" mode="normal"/></filter></defs><g><line style="stroke: #A80036; stroke-width: 1.0; stroke-dasharray: 5.0,5.0;" x1="41" x2="41" y1="38.4883" y2="259.6621"/><line style="stroke: #A80036; stroke-width: 1.0; stroke-dasharray: 5.0,5.0;" x1="221.5" x2="221.5" y1="38.4883" y2="259.6621"/><line style="stroke: #A80036; stroke-width: 1.0; stroke-dasharray: 5.0,5.0;" x1="344.5" x2="344.5" y1="38.4883" y2="259.6621"/><rect fill="#FEFECE" filter="url(#f148zvm8qjj4a1)" height="30.4883" style="stroke: #A80036; stroke-width: 1.5;" width="62" x="8" y="3"/><text fill="#000000" font-family="sans-serif" font-size="14" lengthAdjust="spacingAndGlyphs" textLength="48" x="15" y="23.5352">CLIENT</text><rect fill="#FEFECE" filter="url(#f148zvm8qjj4a1)" height="30.4883" style="stroke: #A80036; stroke-width: 1.5;" width="62" x="8" y="258.6621"/><text fill="#000000" font-family="sans-serif" font-size="14" lengthAdjust="spacingAndGlyphs" textLength="48" x="15" y="279.1973">CLIENT</text><rect fill="#FEFECE" filter="url(#f148zvm8qjj4a1)" height="30.4883" style="stroke: #A80036; stroke-width: 1.5;" width="35" x="202.5" y="3"/><text fill="#000000" font-family="sans-serif" font-size="14" lengthAdjust="spacingAndGlyphs" textLength="21" x="209.5" y="23.5352">api</text><rect fill="#FEFECE" filter="url(#f148zvm8qjj4a1)" height="30.4883" style="stroke: #A80036; stroke-width: 1.5;" width="35" x="202.5" y="258.6621"/><text fill="#000000" font-family="sans-serif" font-size="14" lengthAdjust="spacingAndGlyphs" textLength="21" x="209.5" y="279.1973">api</text><rect fill="#FEFECE" filter="url(#f148zvm8qjj4a1)" height="30.4883" style="stroke: #A80036; stroke-width: 1.5;" width="49" x="318.5" y="3"/><text fill="#000000" font-family="sans-serif" font-size="14" lengthAdjust="spacingAndGlyphs" textLength="35" x="325.5" y="23.5352">store</text><rect fill="#FEFECE" filter="url(#f148zvm8qjj4a1)" height="30.4883" style="stroke: #A80036; stroke-width: 1.5;" width="49" x="318.5" y="258.6621"/><text fill="#000000" font-family="sans-serif" font-size="14" lengthAdjust="spacingAndGlyphs" textLength="35" x="325.5" y="279.1973">store</text><polygon fill="#A80036" points="210,65.7988,220,69.7988,210,73.7988,214,69.7988" style="stroke: #A80036; stroke-width: 1.0;"/><line style="stroke: #A80036; stroke-width: 1.0;" x1="41" x2="216" y1="69.7988" y2="69.7988"/><text fill="#000000" font-family="sans-serif" font-size="13" lengthAdjust="spacingAndGlyphs" textLength="70" x="48" y="65.0566">{data, user}</text><path d="M17,82.7988 L17,122.7988 L245,122.7988 L245,92.7988 L235,82.7988 L17,82.7988 " fill="#FBFB77" filter="url(#f148zvm8qjj4a1)" style="stroke: #A80036; stroke-width: 1.0;"/><path d="M235,82.7988 L235,92.7988 L245,92.7988 L235,82.7988 " fill="#FBFB77" style="stroke: #A80036; stroke-width: 1.0;"/><text fill="#000000" font-family="sans-serif" font-size="13" lengthAdjust="spacingAndGlyphs" textLength="147" x="45.75" y="100.3672">data? 처리를 위해 사용된다.</text><text fill="#000000" font-family="sans-serif" font-size="13" lengthAdjust="spacingAndGlyphs" textLength="158" x="45.75" y="115.6777">user? 퍼미션 처리에 사용된다.</text><polygon fill="#A80036" points="52,149.7305,42,153.7305,52,157.7305,48,153.7305" style="stroke: #A80036; stroke-width: 1.0;"/><line style="stroke: #A80036; stroke-width: 1.0; stroke-dasharray: 2.0,2.0;" x1="46" x2="221" y1="153.7305" y2="153.7305"/><text fill="#000000" font-family="sans-serif" font-size="13" lengthAdjust="spacingAndGlyphs" textLength="157" x="58" y="148.9883">throw if permission error</text><polygon fill="#A80036" points="333,179.041,343,183.041,333,187.041,337,183.041" style="stroke: #A80036; stroke-width: 1.0;"/><line style="stroke: #A80036; stroke-width: 1.0;" x1="222" x2="339" y1="183.041" y2="183.041"/><text fill="#000000" font-family="sans-serif" font-size="13" lengthAdjust="spacingAndGlyphs" textLength="99" x="229" y="178.2988">{...data, ...user?}</text><polygon fill="#A80036" points="52,208.3516,42,212.3516,52,216.3516,48,212.3516" style="stroke: #A80036; stroke-width: 1.0;"/><line style="stroke: #A80036; stroke-width: 1.0; stroke-dasharray: 2.0,2.0;" x1="46" x2="221" y1="212.3516" y2="212.3516"/><text fill="#000000" font-family="sans-serif" font-size="13" lengthAdjust="spacingAndGlyphs" textLength="83" x="58" y="207.6094">throw if error</text><polygon fill="#A80036" points="52,237.6621,42,241.6621,52,245.6621,48,241.6621" style="stroke: #A80036; stroke-width: 1.0;"/><line style="stroke: #A80036; stroke-width: 1.0;" x1="46" x2="221" y1="241.6621" y2="241.6621"/><text fill="#000000" font-family="sans-serif" font-size="13" lengthAdjust="spacingAndGlyphs" textLength="36" x="58" y="236.9199">result</text><!--MD5=[d721b080d2418c3e4846d65f2964a3b4]
@startuml
CLIENT -> api : {data, user}
note over CLIENT, api : data? 처리를 위해 사용된다.\nuser? 퍼미션 처리에 사용된다.
CLIENT <- - api : throw if permission error
api -> store : {...data, ...user?}
CLIENT <- - api : throw if error
CLIENT <- api : result
@enduml

PlantUML version 1.2020.15(Sun Jun 28 20:39:45 KST 2020)
(GPL source distribution)
Java Runtime: OpenJDK Runtime Environment
JVM: OpenJDK 64-Bit Server VM
Default Encoding: UTF-8
Language: ko
Country: KR
--></g></svg>