<?xml version="1.0" encoding="UTF-8" standalone="no"?><svg xmlns="http://www.w3.org/2000/svg" xmlns:xlink="http://www.w3.org/1999/xlink" contentScriptType="application/ecmascript" contentStyleType="text/css" height="723px" preserveAspectRatio="none" style="width:515px;height:723px;" version="1.1" viewBox="0 0 515 723" width="515px" zoomAndPan="magnify"><defs><filter height="300%" id="fcs1lzk0qyk98" width="300%" x="-1" y="-1"><feGaussianBlur result="blurOut" stdDeviation="2.0"/><feColorMatrix in="blurOut" result="blurOut2" type="matrix" values="0 0 0 0 0 0 0 0 0 0 0 0 0 0 0 0 0 0 .4 0"/><feOffset dx="4.0" dy="4.0" in="blurOut2" result="blurOut3"/><feBlend in="SourceGraphic" in2="blurOut3" mode="normal"/></filter></defs><g><text fill="#000000" font-family="sans-serif" font-size="18" lengthAdjust="spacingAndGlyphs" textLength="32" x="232.5" y="17.4023">보기</text><!--MD5=[96464e485a405d94e9bd6ac3601b7b01]
entity member--><ellipse cx="36" cy="342.6992" fill="#FEFECE" filter="url(#fcs1lzk0qyk98)" rx="8" ry="8" style="stroke: #A80036; stroke-width: 1.5;"/><path d="M36,350.6992 L36,377.6992 M23,358.6992 L49,358.6992 M36,377.6992 L23,392.6992 M36,377.6992 L49,392.6992 " fill="none" filter="url(#fcs1lzk0qyk98)" style="stroke: #A80036; stroke-width: 1.5;"/><text fill="#000000" font-family="sans-serif" font-size="14" lengthAdjust="spacingAndGlyphs" textLength="60" x="6" y="411.7344">로그인유저</text><!--MD5=[d87b6612dccf706d984222f550586743]
entity notMember--><ellipse cx="36" cy="590.6992" fill="#FEFECE" filter="url(#fcs1lzk0qyk98)" rx="8" ry="8" style="stroke: #A80036; stroke-width: 1.5;"/><path d="M36,598.6992 L36,625.6992 M23,606.6992 L49,606.6992 M36,625.6992 L23,640.6992 M36,625.6992 L49,640.6992 " fill="none" filter="url(#fcs1lzk0qyk98)" style="stroke: #A80036; stroke-width: 1.5;"/><text fill="#000000" font-family="sans-serif" font-size="14" lengthAdjust="spacingAndGlyphs" textLength="24" x="24" y="659.7344">익명</text><!--MD5=[79a439086b036a57b90a01d7b2f8bbd1]
entity admin--><ellipse cx="36" cy="48.6992" fill="#FEFECE" filter="url(#fcs1lzk0qyk98)" rx="8" ry="8" style="stroke: #A80036; stroke-width: 1.5;"/><path d="M36,56.6992 L36,83.6992 M23,64.6992 L49,64.6992 M36,83.6992 L23,98.6992 M36,83.6992 L49,98.6992 " fill="none" filter="url(#fcs1lzk0qyk98)" style="stroke: #A80036; stroke-width: 1.5;"/><text fill="#000000" font-family="sans-serif" font-size="14" lengthAdjust="spacingAndGlyphs" textLength="36" x="18" y="117.7344">관리자</text><ellipse cx="228.9558" cy="683.8582" fill="#FEFECE" filter="url(#fcs1lzk0qyk98)" rx="28.4558" ry="14.659" style="stroke: #A80036; stroke-width: 1.5;"/><text fill="#000000" font-family="sans-serif" font-size="14" lengthAdjust="spacingAndGlyphs" textLength="36" x="210.9558" y="688.6023">글목록</text><path d="M373.5,655.6992 L373.5,679.6992 L257.65,683.6992 L373.5,687.6992 L373.5,711.6309 A0,0 0 0 0 373.5,711.6309 L498.5,711.6309 A0,0 0 0 0 498.5,711.6309 L498.5,665.6992 L488.5,655.6992 L373.5,655.6992 A0,0 0 0 0 373.5,655.6992 " fill="#FBFB77" filter="url(#fcs1lzk0qyk98)" style="stroke: #A80036; stroke-width: 1.0;"/><path d="M488.5,655.6992 L488.5,665.6992 L498.5,665.6992 L488.5,655.6992 " fill="#FBFB77" style="stroke: #A80036; stroke-width: 1.0;"/><text fill="#000000" font-family="sans-serif" font-size="13" lengthAdjust="spacingAndGlyphs" textLength="55" x="379.5" y="673.2676">: 시간 순 *</text><text fill="#000000" font-family="sans-serif" font-size="13" lengthAdjust="spacingAndGlyphs" textLength="104" x="379.5" y="688.5781">: 카테고리별 시간 순</text><text fill="#000000" font-family="sans-serif" font-size="13" lengthAdjust="spacingAndGlyphs" textLength="61" x="379.5" y="703.8887">: 좋아요 순?</text><ellipse cx="228.9246" cy="621.7389" fill="#FEFECE" filter="url(#fcs1lzk0qyk98)" rx="14.9246" ry="12.5397" style="stroke: #A80036; stroke-width: 1.5;"/><text fill="#000000" font-family="sans-serif" font-size="14" lengthAdjust="spacingAndGlyphs" textLength="12" x="222.9246" y="626.4831">글</text><ellipse cx="229.098" cy="309.8582" fill="#FEFECE" filter="url(#fcs1lzk0qyk98)" rx="42.598" ry="14.659" style="stroke: #A80036; stroke-width: 1.5;"/><text fill="#000000" font-family="sans-serif" font-size="14" lengthAdjust="spacingAndGlyphs" textLength="56" x="201.098" y="314.6023">내 글 목록</text><path d="M369,281.6992 L369,305.6992 L271.98,309.6992 L369,313.6992 L369,337.6309 A0,0 0 0 0 369,337.6309 L503,337.6309 A0,0 0 0 0 503,337.6309 L503,291.6992 L493,281.6992 L369,281.6992 A0,0 0 0 0 369,281.6992 " fill="#FBFB77" filter="url(#fcs1lzk0qyk98)" style="stroke: #A80036; stroke-width: 1.0;"/><path d="M493,281.6992 L493,291.6992 L503,291.6992 L493,281.6992 " fill="#FBFB77" style="stroke: #A80036; stroke-width: 1.0;"/><text fill="#000000" font-family="sans-serif" font-size="13" lengthAdjust="spacingAndGlyphs" textLength="55" x="375" y="299.2676">: 시간 순 *</text><text fill="#000000" font-family="sans-serif" font-size="13" lengthAdjust="spacingAndGlyphs" textLength="113" x="375" y="314.5781">: 카테고리별 시간 순 ?</text><text fill="#000000" font-family="sans-serif" font-size="13" lengthAdjust="spacingAndGlyphs" textLength="91" x="375" y="329.8887">: 좋아요 받은 순 ?</text><ellipse cx="229.0833" cy="373.8582" fill="#FEFECE" filter="url(#fcs1lzk0qyk98)" rx="51.0833" ry="14.659" style="stroke: #A80036; stroke-width: 1.5;"/><text fill="#000000" font-family="sans-serif" font-size="14" lengthAdjust="spacingAndGlyphs" textLength="68" x="195.0833" y="378.6023">내 댓글 목록</text><ellipse cx="229.1558" cy="440.9304" fill="#FEFECE" filter="url(#fcs1lzk0qyk98)" rx="74.1558" ry="17.2312" style="stroke: #A80036; stroke-width: 1.5;"/><text fill="#000000" font-family="sans-serif" font-size="14" lengthAdjust="spacingAndGlyphs" textLength="116" x="171.1558" y="445.6745">내가 좋아요한 글목록</text><ellipse cx="229.1259" cy="510.9244" fill="#FEFECE" filter="url(#fcs1lzk0qyk98)" rx="79.1259" ry="18.2252" style="stroke: #A80036; stroke-width: 1.5;"/><text fill="#000000" font-family="sans-serif" font-size="14" lengthAdjust="spacingAndGlyphs" textLength="128" x="165.1259" y="515.6685">내가 좋아요한 댓글목록</text><ellipse cx="229.0685" cy="179.8582" fill="#FEFECE" filter="url(#fcs1lzk0qyk98)" rx="59.5685" ry="14.659" style="stroke: #A80036; stroke-width: 1.5;"/><text fill="#000000" font-family="sans-serif" font-size="14" lengthAdjust="spacingAndGlyphs" textLength="80" x="189.0685" y="184.6023">내 신고글 목록</text><ellipse cx="228.7669" cy="244.5526" fill="#FEFECE" filter="url(#fcs1lzk0qyk98)" rx="64.7669" ry="15.3534" style="stroke: #A80036; stroke-width: 1.5;"/><text fill="#000000" font-family="sans-serif" font-size="14" lengthAdjust="spacingAndGlyphs" textLength="92" x="182.7669" y="249.2967">내 신고댓글 목록</text><ellipse cx="228.7952" cy="44.7583" fill="#FEFECE" filter="url(#fcs1lzk0qyk98)" rx="75.7952" ry="17.559" style="stroke: #A80036; stroke-width: 1.5;"/><text fill="#000000" font-family="sans-serif" font-size="14" lengthAdjust="spacingAndGlyphs" textLength="120" x="168.7952" y="49.5024">신고받은 글,댓글 목록</text><ellipse cx="228.9349" cy="113.7862" fill="#FEFECE" filter="url(#fcs1lzk0qyk98)" rx="70.9349" ry="16.587" style="stroke: #A80036; stroke-width: 1.5;"/><text fill="#000000" font-family="sans-serif" font-size="14" lengthAdjust="spacingAndGlyphs" textLength="108" x="174.9349" y="118.5303">처리한 글,댓글 목록</text><!--MD5=[3e55616a194dca26f7aa1d736755cbe4]
link notMember to 글목록--><path d="M50.87,628.1692 C62.7,633.5492 80.25,641.1792 96,646.6992 C130.47,658.7792 171.04,669.6692 198.02,676.4592 " fill="none" id="notMember-&gt;글목록" style="stroke: #A80036; stroke-width: 1.0;"/><polygon fill="#A80036" points="202.89,677.6792,195.1162,671.632,198.0368,676.4766,193.1921,679.3972,202.89,677.6792" style="stroke: #A80036; stroke-width: 1.0;"/><text fill="#000000" font-family="sans-serif" font-size="13" lengthAdjust="spacingAndGlyphs" textLength="22" x="97" y="643.2676">보기</text><!--MD5=[b7d801a9740533bb754bd21b2a0aed38]
link notMember to 글--><path d="M50.74,621.6992 C84.16,621.6992 169.83,621.6992 208.52,621.6992 " fill="none" id="notMember-&gt;글" style="stroke: #A80036; stroke-width: 1.0;"/><polygon fill="#A80036" points="213.87,621.6992,204.87,617.6992,208.87,621.6992,204.87,625.6992,213.87,621.6992" style="stroke: #A80036; stroke-width: 1.0;"/><text fill="#000000" font-family="sans-serif" font-size="13" lengthAdjust="spacingAndGlyphs" textLength="22" x="97" y="618.2676">보기</text><!--MD5=[30b4fa7727431bda759f615def8ff084]
link 글 to 글--><path d="M217.89,612.8392 C202.73,596.3292 206.43,574.1992 229,574.1992 C249.81,574.1992 254.58,593.0092 243.32,608.8792 " fill="none" id="글-&gt;글" style="stroke: #A80036; stroke-width: 1.0;"/><polygon fill="#A80036" points="240.11,612.8392,248.8898,608.3766,243.263,608.9586,242.6809,603.3318,240.11,612.8392" style="stroke: #A80036; stroke-width: 1.0;"/><text fill="#000000" font-family="sans-serif" font-size="13" lengthAdjust="spacingAndGlyphs" textLength="92" x="183" y="565.7676">viewCount + 1</text><!--MD5=[1ecb1869a44d22120f1c480aa388c469]
link member to 내 글 목록--><path d="M66.01,362.5592 C75.53,358.9892 86.18,355.0892 96,351.6992 C128.21,340.5792 165.2,328.8992 191.81,320.6892 " fill="none" id="member-&gt;내 글 목록" style="stroke: #A80036; stroke-width: 1.0;"/><polygon fill="#A80036" points="196.65,319.1992,186.8719,318.0208,191.8708,320.6686,189.223,325.6675,196.65,319.1992" style="stroke: #A80036; stroke-width: 1.0;"/><text fill="#000000" font-family="sans-serif" font-size="13" lengthAdjust="spacingAndGlyphs" textLength="22" x="97" y="340.2676">보기</text><!--MD5=[7e46f803f97efbe2d6e011ee26a701b9]
link member to 내 댓글 목록--><path d="M66.01,373.6992 C94.26,373.6992 137.91,373.6992 172.79,373.6992 " fill="none" id="member-&gt;내 댓글 목록" style="stroke: #A80036; stroke-width: 1.0;"/><polygon fill="#A80036" points="177.87,373.6992,168.87,369.6992,172.87,373.6992,168.87,377.6992,177.87,373.6992" style="stroke: #A80036; stroke-width: 1.0;"/><text fill="#000000" font-family="sans-serif" font-size="13" lengthAdjust="spacingAndGlyphs" textLength="22" x="97" y="370.2676">보기</text><!--MD5=[fa6efbecb5eec228f39aaf0db1f9a2ba]
link member to 내가 좋아요한 글목록--><path d="M66.2,386.6992 C75.63,390.7392 86.19,395.0692 96,398.6992 C122.64,408.5592 152.8,418.2592 177.56,425.8492 " fill="none" id="member-&gt;내가 좋아요한 글목록" style="stroke: #A80036; stroke-width: 1.0;"/><polygon fill="#A80036" points="182.44,427.3392,175.013,420.8709,177.6608,425.8698,172.6619,428.5176,182.44,427.3392" style="stroke: #A80036; stroke-width: 1.0;"/><text fill="#000000" font-family="sans-serif" font-size="13" lengthAdjust="spacingAndGlyphs" textLength="22" x="97" y="395.2676">보기</text><!--MD5=[9e8aa3dc06d72f28f8fcff92a7c2f448]
link member to 내가 좋아요한 댓글목록--><path d="M66.25,405.4792 C87.76,427.4292 118.62,456.0992 150,475.6992 C160.35,482.1692 172.11,488.0892 183.29,493.1492 " fill="none" id="member-&gt;내가 좋아요한 댓글목록" style="stroke: #A80036; stroke-width: 1.0;"/><polygon fill="#A80036" points="188.04,495.2692,181.4636,487.9377,183.4775,493.2239,178.1912,495.2378,188.04,495.2692" style="stroke: #A80036; stroke-width: 1.0;"/><text fill="#000000" font-family="sans-serif" font-size="13" lengthAdjust="spacingAndGlyphs" textLength="22" x="97" y="431.2676">보기</text><!--MD5=[044ba30aa69b355898a6c2534db4b8eb]
link member to 내 신고글 목록--><path d="M55.29,333.0392 C73.97,296.0592 106.39,242.6792 150,211.6992 C160.85,203.9892 173.83,197.7192 186.06,192.8392 " fill="none" id="member-&gt;내 신고글 목록" style="stroke: #A80036; stroke-width: 1.0;"/><polygon fill="#A80036" points="190.89,190.9692,181.0519,190.509,186.2311,192.7842,183.9559,197.9634,190.89,190.9692" style="stroke: #A80036; stroke-width: 1.0;"/><text fill="#000000" font-family="sans-serif" font-size="13" lengthAdjust="spacingAndGlyphs" textLength="22" x="97" y="236.2676">보기</text><!--MD5=[6585a181dfc5005e4548a21247e41016]
link member to 내 신고댓글 목록--><path d="M66.37,343.5492 C87.94,322.7792 118.81,295.7592 150,277.6992 C161.68,270.9392 175.02,264.7792 187.32,259.6592 " fill="none" id="member-&gt;내 신고댓글 목록" style="stroke: #A80036; stroke-width: 1.0;"/><polygon fill="#A80036" points="192.16,257.6792,182.316,257.3705,187.5295,259.5657,185.3344,264.7793,192.16,257.6792" style="stroke: #A80036; stroke-width: 1.0;"/><text fill="#000000" font-family="sans-serif" font-size="13" lengthAdjust="spacingAndGlyphs" textLength="22" x="97" y="294.2676">보기</text><!--MD5=[03d728ff7b15905c49ec0854c80eed45]
link member to notMember--><path d="M36,414.5992 C36,468.3292 36,522.0692 36,575.8092 " fill="none" id="member-&gt;notMember" style="stroke: #A80036; stroke-width: 1.0;"/><polygon fill="#A80036" points="36,581.0092,40,572.0092,36,576.0092,32,572.0092,36,581.0092" style="stroke: #A80036; stroke-width: 1.0;"/><!--MD5=[293319b3532de406a08872559d29dc54]
link admin to 신고받은 글,댓글 목록--><path d="M54.29,76.5292 C78.81,72.0392 125,63.5792 163.59,56.4992 " fill="none" id="admin-&gt;신고받은 글,댓글 목록" style="stroke: #A80036; stroke-width: 1.0;"/><polygon fill="#A80036" points="168.73,55.5592,159.1567,53.2459,163.8118,56.4599,160.5978,61.1151,168.73,55.5592" style="stroke: #A80036; stroke-width: 1.0;"/><text fill="#000000" font-family="sans-serif" font-size="13" lengthAdjust="spacingAndGlyphs" textLength="22" x="97" y="61.2676">보기</text><!--MD5=[521e37ed644d781f99914cad3b42af93]
link admin to 처리한 글,댓글 목록--><path d="M54.04,88.7092 C65.55,94.3492 81.28,101.1892 96,104.6992 C114.07,109.0192 133.9,111.4992 152.58,112.8892 " fill="none" id="admin-&gt;처리한 글,댓글 목록" style="stroke: #A80036; stroke-width: 1.0;"/><polygon fill="#A80036" points="157.81,113.2492,149.1188,108.6164,152.8228,112.892,148.5472,116.5959,157.81,113.2492" style="stroke: #A80036; stroke-width: 1.0;"/><text fill="#000000" font-family="sans-serif" font-size="13" lengthAdjust="spacingAndGlyphs" textLength="22" x="97" y="101.2676">보기</text><!--MD5=[049840b7b20df3283615d2e9c25a2e0a]
@startuml
title 보기
left to right direction

actor 로그인유저 as member
actor 익명 as notMember
actor 관리자 as admin

notMember - -> (글목록): 보기
note right
: 시간 순 *
: 카테고리별 시간 순
: 좋아요 순?
end note
notMember - -> (글): 보기

(글) -> (글): viewCount + 1

member - -> (내 글 목록): 보기
note right
: 시간 순 *
: 카테고리별 시간 순 ?
: 좋아요 받은 순 ?
end note
member - -> (내 댓글 목록): 보기
member - -> (내가 좋아요한 글목록): 보기
member - -> (내가 좋아요한 댓글목록): 보기
member - -> (내 신고글 목록): 보기
member - -> (내 신고댓글 목록): 보기
member -> notMember

admin - -> (신고받은 글,댓글 목록): 보기
admin - -> (처리한 글,댓글 목록): 보기

@enduml

PlantUML version 1.2020.15(Sun Jun 28 20:39:45 KST 2020)
(GPL source distribution)
Java Runtime: OpenJDK Runtime Environment
JVM: OpenJDK 64-Bit Server VM
Default Encoding: UTF-8
Language: ko
Country: KR
--></g></svg>